<svg xmlns="http://www.w3.org/2000/svg" style="display:none;">





<!-- login icons -->
<symbol id="authentication-notlogin-pc" width="24" height="24" viewBox="0 0 24 24" fill="none">
<path d="M12 2C9.38 2 7.25 4.13 7.25 6.75C7.25 9.32 9.26 11.4 11.88 11.49C11.96 11.48 12.04 11.48 12.1 11.49C12.12 11.49 12.13 11.49 12.15 11.49C12.16 11.49 12.16 11.49 12.17 11.49C14.73 11.4 16.74 9.32 16.75 6.75C16.75 4.13 14.62 2 12 2Z" fill="currentColor"/>
<path d="M17.0809 14.1489C14.2909 12.2889 9.74094 12.2889 6.93094 14.1489C5.66094 14.9989 4.96094 16.1489 4.96094 17.3789C4.96094 18.6089 5.66094 19.7489 6.92094 20.5889C8.32094 21.5289 10.1609 21.9989 12.0009 21.9989C13.8409 21.9989 15.6809 21.5289 17.0809 20.5889C18.3409 19.7389 19.0409 18.5989 19.0409 17.3589C19.0309 16.1289 18.3409 14.9889 17.0809 14.1489Z" fill="currentColor"/>
</symbol>

<symbol id="authentication-notlogin-mobile" width="24" height="24" viewBox="0 0 24 24" fill="none">
<path d="M12 2C9.38 2 7.25 4.13 7.25 6.75C7.25 9.32 9.26 11.4 11.88 11.49C11.96 11.48 12.04 11.48 12.1 11.49C12.12 11.49 12.13 11.49 12.15 11.49C12.16 11.49 12.16 11.49 12.17 11.49C14.73 11.4 16.74 9.32 16.75 6.75C16.75 4.13 14.62 2 12 2Z" fill="currentColor"/>
<path d="M17.0809 14.1489C14.2909 12.2889 9.74094 12.2889 6.93094 14.1489C5.66094 14.9989 4.96094 16.1489 4.96094 17.3789C4.96094 18.6089 5.66094 19.7489 6.92094 20.5889C8.32094 21.5289 10.1609 21.9989 12.0009 21.9989C13.8409 21.9989 15.6809 21.5289 17.0809 20.5889C18.3409 19.7389 19.0409 18.5989 19.0409 17.3589C19.0309 16.1289 18.3409 14.9889 17.0809 14.1489Z" fill="currentColor"/>
</symbol>

<symbol id="authentication-login-pc" width="24" height="24" viewBox="0 0 24 24" fill="none">
<path d="M12 2C9.38 2 7.25 4.13 7.25 6.75C7.25 9.32 9.26 11.4 11.88 11.49C11.96 11.48 12.04 11.48 12.1 11.49C12.12 11.49 12.13 11.49 12.15 11.49C12.16 11.49 12.16 11.49 12.17 11.49C14.73 11.4 16.74 9.32 16.75 6.75C16.75 4.13 14.62 2 12 2Z" fill="#12B76A"/>
<path d="M17.0809 14.1606C14.2909 12.3006 9.74094 12.3006 6.93094 14.1606C5.66094 15.0006 4.96094 16.1506 4.96094 17.3806C4.96094 18.6106 5.66094 19.7506 6.92094 20.5906C8.32094 21.5306 10.1609 22.0006 12.0009 22.0006C13.8409 22.0006 15.6809 21.5306 17.0809 20.5906C18.3409 19.7406 19.0409 18.6006 19.0409 17.3606C19.0309 16.1406 18.3409 14.9906 17.0809 14.1606ZM14.3309 16.5606L11.8109 19.0806C11.6909 19.2006 11.5309 19.2606 11.3709 19.2606C11.2109 19.2606 11.0509 19.1906 10.9309 19.0806L9.67094 17.8206C9.43094 17.5806 9.43094 17.1806 9.67094 16.9406C9.91094 16.7006 10.3109 16.7006 10.5509 16.9406L11.3709 17.7606L13.4509 15.6806C13.6909 15.4406 14.0909 15.4406 14.3309 15.6806C14.5809 15.9206 14.5809 16.3206 14.3309 16.5606Z" fill="#12B76A"/>
</symbol>

<symbol id="authentication-login-mobile" width="24" height="24" viewBox="0 0 24 24" fill="none">
<path d="M12 2C9.38 2 7.25 4.13 7.25 6.75C7.25 9.32 9.26 11.4 11.88 11.49C11.96 11.48 12.04 11.48 12.1 11.49C12.12 11.49 12.13 11.49 12.15 11.49C12.16 11.49 12.16 11.49 12.17 11.49C14.73 11.4 16.74 9.32 16.75 6.75C16.75 4.13 14.62 2 12 2Z" fill="#12B76A"/>
<path d="M17.0809 14.1606C14.2909 12.3006 9.74094 12.3006 6.93094 14.1606C5.66094 15.0006 4.96094 16.1506 4.96094 17.3806C4.96094 18.6106 5.66094 19.7506 6.92094 20.5906C8.32094 21.5306 10.1609 22.0006 12.0009 22.0006C13.8409 22.0006 15.6809 21.5306 17.0809 20.5906C18.3409 19.7406 19.0409 18.6006 19.0409 17.3606C19.0309 16.1406 18.3409 14.9906 17.0809 14.1606ZM14.3309 16.5606L11.8109 19.0806C11.6909 19.2006 11.5309 19.2606 11.3709 19.2606C11.2109 19.2606 11.0509 19.1906 10.9309 19.0806L9.67094 17.8206C9.43094 17.5806 9.43094 17.1806 9.67094 16.9406C9.91094 16.7006 10.3109 16.7006 10.5509 16.9406L11.3709 17.7606L13.4509 15.6806C13.6909 15.4406 14.0909 15.4406 14.3309 15.6806C14.5809 15.9206 14.5809 16.3206 14.3309 16.5606Z" fill="#12B76A"/>
</symbol>
<!-- login icons -->






<symbol id="flight-search-icon" width="25" height="25" viewBox="0 0 64 64" fill="#000">
 <path d="m63.317 16.523c-.869-2.348-3.465-3.754-5.928-3.129l-3.442-2.099c-1.3-.787-2.871-.941-4.309-.424l-12.592 4.582-10.34-14.611c-.26-.367-.737-.515-1.158-.362l-5.63 2.05c-.52.189-.787.762-.598 1.281l5.808 15.977-12.52 4.556-6.725-7.522c-.271-.304-.702-.414-1.087-.273l-3.759 1.368c-.52.188-.787.763-.598 1.281l5.471 15.034c.144.396.52.658.939.658h.013l21.19-.26c.112-.001.225-.022.33-.061l1.877-.685 5.473 15.036c.147.406.531.659.939.659.113 0 .229-.02.342-.061l5.639-2.053c.424-.154.692-.573.654-1.022l-1.395-16.797 18.42-6.708c1.967-.716 3.288-2.608 3.288-4.709.001-.568-.099-1.139-.302-1.706zm-41.776-12.455 3.974-1.447 9.584 13.54-8.092 2.944zm-16.146 22.901-2.735-7.514 2.184-.794 5.741 6.42zm31.875 20.328-6.841-18.794 9.106-3.314 1.716 20.66zm22.378-26.236-17.908 6.521-.321-3.863c-.025-.311-.194-.592-.457-.76s-.59-.202-.881-.098l-11.276 4.104c-.249.091-.452.277-.564.517-.112.241-.124.516-.033.765l1.368 3.758-1.718.627-20.311.25-1.466-4.033 44.238-16.097c.865-.312 1.811-.219 2.59.252l.958.584-2.936 1.069.684 1.88 4.438-1.615.677.413c.257.158.574.189.855.089 1.592-.567 3.303.294 3.853 1.783.121.34.183.684.183 1.024-.001 1.263-.794 2.4-1.973 2.83z"/>
 <path d="m44.634 16.648h1.999v2h-1.999z" transform="matrix(.94 -.342 .342 .94 -3.284 16.662)"/>
 <path d="m40.875 18.016h1.999v2h-1.999z" transform="matrix(.94 -.342 .342 .94 -3.978 15.459)"/>
 <path d="m37.117 19.385h1.999v2h-1.999z" transform="matrix(.94 -.342 .342 .94 -4.672 14.257)"/>
 <path d="m33.358 20.753h1.999v2h-1.999z" transform="matrix(.94 -.342 .342 .94 -5.366 13.054)"/>
 <path d="m29.599 22.121h1.999v2h-1.999z" transform="matrix(.94 -.342 .342 .94 -6.06 11.852)"/>
 <path d="m25.84 23.489h1.999v2h-1.999z" transform="matrix(.94 -.342 .342 .94 -6.754 10.65)"/>
 <path d="m22.081 24.857h1.999v2h-1.999z" transform="matrix(.94 -.342 .342 .94 -7.448 9.447)"/>
 <path d="m18.323 26.225h2v2h-2z" transform="matrix(.94 -.342 .342 .94 -8.151 8.257)"/>
 <path d="m14.564 27.593h2v2h-2z" transform="matrix(.94 -.342 .342 .94 -8.846 7.054)"/>
 <path d="m19 44h6.184c.414 1.161 1.514 2 2.816 2 1.654 0 3-1.346 3-3s-1.346-3-3-3c-1.302 0-2.402.839-2.816 2h-6.184c-3.309 0-6 2.691-6 6s2.691 6 6 6h17v-2h-17c-2.206 0-4-1.794-4-4s1.794-4 4-4zm9-2c.552 0 1 .449 1 1s-.448 1-1 1-1-.449-1-1 .448-1 1-1z"/>
 <path d="m38 52h2v2h-2z"/>
 <path d="m50.5 52h-8.5v2h8.5c1.379 0 2.5 1.122 2.5 2.5s-1.121 2.5-2.5 2.5h-31.5v2h31.5c2.481 0 4.5-2.019 4.5-4.5s-2.019-4.5-4.5-4.5z"/>
 <path d="m5 57c-1.654 0-3 1.346-3 3s1.346 3 3 3c1.302 0 2.402-.839 2.816-2h9.184v-2h-9.184c-.414-1.161-1.514-2-2.816-2zm0 4c-.552 0-1-.449-1-1s.448-1 1-1 1 .449 1 1-.448 1-1 1z"/>
</symbol>

<symbol id="flight-search-icon-active" width="25" height="25" viewBox="0 0 64 64" fill="var(--active-module)">
 <path d="m63.317 16.523c-.869-2.348-3.465-3.754-5.928-3.129l-3.442-2.099c-1.3-.787-2.871-.941-4.309-.424l-12.592 4.582-10.34-14.611c-.26-.367-.737-.515-1.158-.362l-5.63 2.05c-.52.189-.787.762-.598 1.281l5.808 15.977-12.52 4.556-6.725-7.522c-.271-.304-.702-.414-1.087-.273l-3.759 1.368c-.52.188-.787.763-.598 1.281l5.471 15.034c.144.396.52.658.939.658h.013l21.19-.26c.112-.001.225-.022.33-.061l1.877-.685 5.473 15.036c.147.406.531.659.939.659.113 0 .229-.02.342-.061l5.639-2.053c.424-.154.692-.573.654-1.022l-1.395-16.797 18.42-6.708c1.967-.716 3.288-2.608 3.288-4.709.001-.568-.099-1.139-.302-1.706zm-41.776-12.455 3.974-1.447 9.584 13.54-8.092 2.944zm-16.146 22.901-2.735-7.514 2.184-.794 5.741 6.42zm31.875 20.328-6.841-18.794 9.106-3.314 1.716 20.66zm22.378-26.236-17.908 6.521-.321-3.863c-.025-.311-.194-.592-.457-.76s-.59-.202-.881-.098l-11.276 4.104c-.249.091-.452.277-.564.517-.112.241-.124.516-.033.765l1.368 3.758-1.718.627-20.311.25-1.466-4.033 44.238-16.097c.865-.312 1.811-.219 2.59.252l.958.584-2.936 1.069.684 1.88 4.438-1.615.677.413c.257.158.574.189.855.089 1.592-.567 3.303.294 3.853 1.783.121.34.183.684.183 1.024-.001 1.263-.794 2.4-1.973 2.83z"/>
 <path d="m44.634 16.648h1.999v2h-1.999z" transform="matrix(.94 -.342 .342 .94 -3.284 16.662)"/>
 <path d="m40.875 18.016h1.999v2h-1.999z" transform="matrix(.94 -.342 .342 .94 -3.978 15.459)"/>
 <path d="m37.117 19.385h1.999v2h-1.999z" transform="matrix(.94 -.342 .342 .94 -4.672 14.257)"/>
 <path d="m33.358 20.753h1.999v2h-1.999z" transform="matrix(.94 -.342 .342 .94 -5.366 13.054)"/>
 <path d="m29.599 22.121h1.999v2h-1.999z" transform="matrix(.94 -.342 .342 .94 -6.06 11.852)"/>
 <path d="m25.84 23.489h1.999v2h-1.999z" transform="matrix(.94 -.342 .342 .94 -6.754 10.65)"/>
 <path d="m22.081 24.857h1.999v2h-1.999z" transform="matrix(.94 -.342 .342 .94 -7.448 9.447)"/>
 <path d="m18.323 26.225h2v2h-2z" transform="matrix(.94 -.342 .342 .94 -8.151 8.257)"/>
 <path d="m14.564 27.593h2v2h-2z" transform="matrix(.94 -.342 .342 .94 -8.846 7.054)"/>
 <path d="m19 44h6.184c.414 1.161 1.514 2 2.816 2 1.654 0 3-1.346 3-3s-1.346-3-3-3c-1.302 0-2.402.839-2.816 2h-6.184c-3.309 0-6 2.691-6 6s2.691 6 6 6h17v-2h-17c-2.206 0-4-1.794-4-4s1.794-4 4-4zm9-2c.552 0 1 .449 1 1s-.448 1-1 1-1-.449-1-1 .448-1 1-1z"/>
 <path d="m38 52h2v2h-2z"/>
 <path d="m50.5 52h-8.5v2h8.5c1.379 0 2.5 1.122 2.5 2.5s-1.121 2.5-2.5 2.5h-31.5v2h31.5c2.481 0 4.5-2.019 4.5-4.5s-2.019-4.5-4.5-4.5z"/>
 <path d="m5 57c-1.654 0-3 1.346-3 3s1.346 3 3 3c1.302 0 2.402-.839 2.816-2h9.184v-2h-9.184c-.414-1.161-1.514-2-2.816-2zm0 4c-.552 0-1-.449-1-1s.448-1 1-1 1 .449 1 1-.448 1-1 1z"/>
</symbol>

<symbol id="hotel-search-icon" width="25" height="25" viewBox="0 0 512 512" fill="#000">
 <g>
 <g>
 <g>
 <g>
 <g>
 <path d="m232.846 205.036h-41.409c-5.523 0-10 4.477-10 10v51.597c0 5.523 4.477 10 10 10h41.409c5.523 0 10-4.477 10-10v-51.597c0-5.523-4.477-10-10-10zm-10 51.597h-21.409v-31.597h21.409z"/>
 <path d="m279.154 276.633h41.409c5.523 0 10-4.477 10-10v-51.597c0-5.523-4.477-10-10-10h-41.409c-5.523 0-10 4.477-10 10v51.597c0 5.523 4.477 10 10 10zm10-51.597h21.409v31.597h-21.409z"/>
 <path d="m232.846 301.399h-41.409c-5.523 0-10 4.477-10 10v51.597c0 5.523 4.477 10 10 10h41.409c5.523 0 10-4.477 10-10v-51.597c0-5.523-4.477-10-10-10zm-10 51.598h-21.409v-31.597h21.409z"/>
 <path d="m330.563 362.997v-51.597c0-5.523-4.477-10-10-10h-41.409c-5.523 0-10 4.477-10 10v51.597c0 5.523 4.477 10 10 10h41.409c5.523 0 10-4.477 10-10zm-20-10h-21.409v-31.597h21.409z"/>
 <path d="m504.462 356.656c0-19.586-7.562-37.441-19.922-50.803.001-.043.002-.086.002-.129v-125.225c0-5.523-4.477-10-10-10h-100.11v-10.456c0-5.523-4.477-10-10-10h-216.865c-5.523 0-10 4.477-10 10v10.456h-100.109c-5.523 0-10 4.477-10 10v125.356c-12.359 13.362-19.92 31.216-19.92 50.801s7.561 37.439 19.92 50.801v94.543c0 5.523 4.477 10 10 10h437.085c5.523 0 10-4.477 10-10v-94.543c12.358-13.362 19.919-31.216 19.919-50.801zm-431.948 135.344h-25.056v-69.135c7.664 4.067 16.113 6.845 25.057 8.042v61.093zm-44.976-135.344c0-30.28 24.663-54.915 54.977-54.915s54.977 24.635 54.977 54.915-24.663 54.915-54.977 54.915c-30.315-.001-54.977-24.636-54.977-54.915zm110.029 135.344h-45.053v-61.093c17.71-2.369 33.483-10.939 45.053-23.446zm0-186.15c-13.707-14.818-33.315-24.11-55.053-24.11-12.656 0-24.589 3.15-35.057 8.705v-99.947h90.11zm346.895 50.806c0 30.28-24.663 54.915-54.977 54.915s-54.977-24.635-54.977-54.915 24.663-54.915 54.977-54.915c30.315 0 54.977 24.634 54.977 54.915zm-64.977 135.344h-45.053v-84.539c11.57 12.507 27.342 21.077 45.053 23.445zm-129.18 0h-68.61v-64.018h68.61zm10-84.018h-88.61c-5.523 0-10 4.477-10 10v74.018h-44.127v-321.958h196.865v47.686c0 5.523 4.477 10 10 10s10-4.477 10-10v-27.229h90.11v99.948c-10.468-5.556-22.401-8.705-35.057-8.705-21.851 0-41.549 9.389-55.265 24.34-.949-4.535-4.97-7.941-9.787-7.941-5.523 0-10 4.477-10 10v183.859h-44.127v-74.018c-.002-5.523-4.479-10-10.002-10zm139.18 84.018v-61.093c8.944-1.196 17.393-3.974 25.057-8.042v69.135z"/>
 <path d="m355.2 266.94c1.602 3.845 5.529 6.368 9.703 6.167 4.063-.196 7.688-2.926 8.997-6.776 1.326-3.898.057-8.333-3.126-10.943-3.366-2.76-8.272-3.003-11.894-.588-3.915 2.61-5.489 7.797-3.68 12.14z"/>
 <path d="m216.085 78.186-2.507 30.893c-.282 3.477 1.268 6.849 4.089 8.899 2.823 2.05 6.508 2.482 9.727 1.139l28.606-11.932 28.605 11.932c1.239.517 2.547.771 3.849.771 2.08 0 4.143-.648 5.879-1.91 2.822-2.05 4.372-5.423 4.089-8.899l-2.507-30.893 20.187-23.519c2.271-2.647 3-6.286 1.922-9.604-1.078-3.317-3.807-5.833-7.2-6.639l-30.155-7.161-16.13-26.467c-1.815-2.979-5.051-4.796-8.539-4.796s-6.724 1.817-8.539 4.796l-16.13 26.467-30.155 7.161c-3.394.806-6.122 3.322-7.2 6.639s-.349 6.957 1.922 9.604zm23.925-28.428c2.597-.617 4.839-2.246 6.229-4.525l9.761-16.017 9.761 16.017c1.389 2.279 3.631 3.909 6.228 4.525l18.249 4.333-12.216 14.233c-1.738 2.025-2.595 4.662-2.379 7.322l1.518 18.695-17.311-7.221c-1.232-.514-2.54-.771-3.85-.771-1.309 0-2.618.257-3.85.771l-17.311 7.221 1.518-18.695c.216-2.661-.641-5.297-2.379-7.322l-12.216-14.233z"/>
 <path d="m343.244 100.777-1.874 23.078c-.282 3.476 1.268 6.849 4.089 8.899 2.822 2.05 6.509 2.481 9.727 1.139l21.37-8.914 21.37 8.914c1.239.517 2.547.77 3.849.77 2.08 0 4.143-.649 5.879-1.91 2.822-2.05 4.372-5.423 4.089-8.899l-1.873-23.078 15.081-17.57c2.271-2.647 3-6.286 1.922-9.604-1.078-3.317-3.807-5.833-7.2-6.639l-22.527-5.35-12.05-19.772c-1.815-2.979-5.051-4.796-8.539-4.796s-6.724 1.817-8.539 4.796l-12.05 19.772-22.527 5.35c-3.393.806-6.122 3.322-7.2 6.639s-.349 6.957 1.923 9.604zm21.403-20.667c2.597-.617 4.839-2.246 6.229-4.525l5.681-9.322 5.681 9.322c1.389 2.279 3.631 3.909 6.228 4.525l10.621 2.522-7.11 8.284c-1.738 2.025-2.595 4.662-2.379 7.322l.883 10.88-10.075-4.203c-1.232-.514-2.54-.771-3.85-.771-1.309 0-2.618.257-3.85.771l-10.075 4.202.883-10.88c.216-2.66-.641-5.297-2.379-7.322l-7.11-8.284z"/>
 <path d="m102.129 100.777-1.873 23.078c-.282 3.476 1.268 6.849 4.089 8.899 1.736 1.261 3.799 1.91 5.879 1.91 1.301 0 2.61-.254 3.849-.77l21.37-8.914 21.37 8.914c3.219 1.342 6.906.911 9.728-1.139s4.372-5.423 4.089-8.899l-1.873-23.078 15.08-17.57c2.272-2.647 3.001-6.286 1.923-9.604-1.078-3.317-3.807-5.833-7.2-6.639l-22.527-5.35-12.05-19.772c-1.815-2.979-5.051-4.796-8.539-4.796s-6.724 1.817-8.539 4.796l-12.05 19.772-22.527 5.35c-3.394.806-6.122 3.322-7.2 6.639s-.349 6.957 1.922 9.604zm21.404-20.667c2.597-.617 4.839-2.246 6.229-4.525l5.681-9.322 5.681 9.322c1.389 2.279 3.631 3.909 6.229 4.525l10.621 2.522-7.11 8.284c-1.739 2.025-2.595 4.662-2.379 7.322l.883 10.88-10.075-4.202c-2.464-1.027-5.235-1.027-7.699 0l-10.075 4.203.883-10.88c.216-2.661-.641-5.297-2.379-7.322l-7.11-8.284z"/>
 </g>
 </g>
 </g>
 </g>
 </g>
</symbol>
<symbol id="hotel-search-icon-active" width="25" height="25" viewBox="0 0 512 512" fill="var(--active-module)">
 <g>
 <g>
 <g>
 <g>
 <g>
 <path d="m232.846 205.036h-41.409c-5.523 0-10 4.477-10 10v51.597c0 5.523 4.477 10 10 10h41.409c5.523 0 10-4.477 10-10v-51.597c0-5.523-4.477-10-10-10zm-10 51.597h-21.409v-31.597h21.409z"/>
 <path d="m279.154 276.633h41.409c5.523 0 10-4.477 10-10v-51.597c0-5.523-4.477-10-10-10h-41.409c-5.523 0-10 4.477-10 10v51.597c0 5.523 4.477 10 10 10zm10-51.597h21.409v31.597h-21.409z"/>
 <path d="m232.846 301.399h-41.409c-5.523 0-10 4.477-10 10v51.597c0 5.523 4.477 10 10 10h41.409c5.523 0 10-4.477 10-10v-51.597c0-5.523-4.477-10-10-10zm-10 51.598h-21.409v-31.597h21.409z"/>
 <path d="m330.563 362.997v-51.597c0-5.523-4.477-10-10-10h-41.409c-5.523 0-10 4.477-10 10v51.597c0 5.523 4.477 10 10 10h41.409c5.523 0 10-4.477 10-10zm-20-10h-21.409v-31.597h21.409z"/>
 <path d="m504.462 356.656c0-19.586-7.562-37.441-19.922-50.803.001-.043.002-.086.002-.129v-125.225c0-5.523-4.477-10-10-10h-100.11v-10.456c0-5.523-4.477-10-10-10h-216.865c-5.523 0-10 4.477-10 10v10.456h-100.109c-5.523 0-10 4.477-10 10v125.356c-12.359 13.362-19.92 31.216-19.92 50.801s7.561 37.439 19.92 50.801v94.543c0 5.523 4.477 10 10 10h437.085c5.523 0 10-4.477 10-10v-94.543c12.358-13.362 19.919-31.216 19.919-50.801zm-431.948 135.344h-25.056v-69.135c7.664 4.067 16.113 6.845 25.057 8.042v61.093zm-44.976-135.344c0-30.28 24.663-54.915 54.977-54.915s54.977 24.635 54.977 54.915-24.663 54.915-54.977 54.915c-30.315-.001-54.977-24.636-54.977-54.915zm110.029 135.344h-45.053v-61.093c17.71-2.369 33.483-10.939 45.053-23.446zm0-186.15c-13.707-14.818-33.315-24.11-55.053-24.11-12.656 0-24.589 3.15-35.057 8.705v-99.947h90.11zm346.895 50.806c0 30.28-24.663 54.915-54.977 54.915s-54.977-24.635-54.977-54.915 24.663-54.915 54.977-54.915c30.315 0 54.977 24.634 54.977 54.915zm-64.977 135.344h-45.053v-84.539c11.57 12.507 27.342 21.077 45.053 23.445zm-129.18 0h-68.61v-64.018h68.61zm10-84.018h-88.61c-5.523 0-10 4.477-10 10v74.018h-44.127v-321.958h196.865v47.686c0 5.523 4.477 10 10 10s10-4.477 10-10v-27.229h90.11v99.948c-10.468-5.556-22.401-8.705-35.057-8.705-21.851 0-41.549 9.389-55.265 24.34-.949-4.535-4.97-7.941-9.787-7.941-5.523 0-10 4.477-10 10v183.859h-44.127v-74.018c-.002-5.523-4.479-10-10.002-10zm139.18 84.018v-61.093c8.944-1.196 17.393-3.974 25.057-8.042v69.135z"/>
 <path d="m355.2 266.94c1.602 3.845 5.529 6.368 9.703 6.167 4.063-.196 7.688-2.926 8.997-6.776 1.326-3.898.057-8.333-3.126-10.943-3.366-2.76-8.272-3.003-11.894-.588-3.915 2.61-5.489 7.797-3.68 12.14z"/>
 <path d="m216.085 78.186-2.507 30.893c-.282 3.477 1.268 6.849 4.089 8.899 2.823 2.05 6.508 2.482 9.727 1.139l28.606-11.932 28.605 11.932c1.239.517 2.547.771 3.849.771 2.08 0 4.143-.648 5.879-1.91 2.822-2.05 4.372-5.423 4.089-8.899l-2.507-30.893 20.187-23.519c2.271-2.647 3-6.286 1.922-9.604-1.078-3.317-3.807-5.833-7.2-6.639l-30.155-7.161-16.13-26.467c-1.815-2.979-5.051-4.796-8.539-4.796s-6.724 1.817-8.539 4.796l-16.13 26.467-30.155 7.161c-3.394.806-6.122 3.322-7.2 6.639s-.349 6.957 1.922 9.604zm23.925-28.428c2.597-.617 4.839-2.246 6.229-4.525l9.761-16.017 9.761 16.017c1.389 2.279 3.631 3.909 6.228 4.525l18.249 4.333-12.216 14.233c-1.738 2.025-2.595 4.662-2.379 7.322l1.518 18.695-17.311-7.221c-1.232-.514-2.54-.771-3.85-.771-1.309 0-2.618.257-3.85.771l-17.311 7.221 1.518-18.695c.216-2.661-.641-5.297-2.379-7.322l-12.216-14.233z"/>
 <path d="m343.244 100.777-1.874 23.078c-.282 3.476 1.268 6.849 4.089 8.899 2.822 2.05 6.509 2.481 9.727 1.139l21.37-8.914 21.37 8.914c1.239.517 2.547.77 3.849.77 2.08 0 4.143-.649 5.879-1.91 2.822-2.05 4.372-5.423 4.089-8.899l-1.873-23.078 15.081-17.57c2.271-2.647 3-6.286 1.922-9.604-1.078-3.317-3.807-5.833-7.2-6.639l-22.527-5.35-12.05-19.772c-1.815-2.979-5.051-4.796-8.539-4.796s-6.724 1.817-8.539 4.796l-12.05 19.772-22.527 5.35c-3.393.806-6.122 3.322-7.2 6.639s-.349 6.957 1.923 9.604zm21.403-20.667c2.597-.617 4.839-2.246 6.229-4.525l5.681-9.322 5.681 9.322c1.389 2.279 3.631 3.909 6.228 4.525l10.621 2.522-7.11 8.284c-1.738 2.025-2.595 4.662-2.379 7.322l.883 10.88-10.075-4.203c-1.232-.514-2.54-.771-3.85-.771-1.309 0-2.618.257-3.85.771l-10.075 4.202.883-10.88c.216-2.66-.641-5.297-2.379-7.322l-7.11-8.284z"/>
 <path d="m102.129 100.777-1.873 23.078c-.282 3.476 1.268 6.849 4.089 8.899 1.736 1.261 3.799 1.91 5.879 1.91 1.301 0 2.61-.254 3.849-.77l21.37-8.914 21.37 8.914c3.219 1.342 6.906.911 9.728-1.139s4.372-5.423 4.089-8.899l-1.873-23.078 15.08-17.57c2.272-2.647 3.001-6.286 1.923-9.604-1.078-3.317-3.807-5.833-7.2-6.639l-22.527-5.35-12.05-19.772c-1.815-2.979-5.051-4.796-8.539-4.796s-6.724 1.817-8.539 4.796l-12.05 19.772-22.527 5.35c-3.394.806-6.122 3.322-7.2 6.639s-.349 6.957 1.922 9.604zm21.404-20.667c2.597-.617 4.839-2.246 6.229-4.525l5.681-9.322 5.681 9.322c1.389 2.279 3.631 3.909 6.229 4.525l10.621 2.522-7.11 8.284c-1.739 2.025-2.595 4.662-2.379 7.322l.883 10.88-10.075-4.202c-2.464-1.027-5.235-1.027-7.699 0l-10.075 4.203.883-10.88c.216-2.661-.641-5.297-2.379-7.322l-7.11-8.284z"/>
 </g>
 </g>
 </g>
 </g>
 </g>
</symbol>

<symbol id="flighthotel-search-icon" width="25" height="25" viewBox="0 0 60 60" fill="#000">
 <g id="Page-1" fill="" fill-rule="evenodd">
 <g id="067---Flight-Luggage" fill="" fill-rule="nonzero" transform="translate(0 -1)">
 <path id="Shape" d="m9 55h-3v-3c0-.5522847-.44771525-1-1-1s-1 .4477153-1 1v4c0 .5522847.44771525 1 1 1h4c.55228475 0 1-.4477153 1-1s-.44771525-1-1-1z"/>
 <path id="Shape" d="m9 27.95h-4c-.55228475 0-1 .4477153-1 1v4.05c0 .5522847.44771525 1 1 1s1-.4477153 1-1v-3.05h3c.55228475 0 1-.4477153 1-1s-.44771525-1-1-1z"/>
 <path id="Shape" d="m20 42.945c-.5522847 0-1 .4477153-1 1v2c0 .5522847.4477153 1 1 1s1-.4477153 1-1v-2c0-.5522847-.4477153-1-1-1z"/>
 <path id="Shape" d="m3.786 23.062-.207.883h-.579c-1.65685425 0-3 1.3431458-3 3v31.055c0 1.6568542 1.34314575 3 3 3h47c2.7600532-.0033061 4.9966939-2.2399468 5-5v-2c0-.5522847-.4477153-1-1-1s-1 .4477153-1 1v2c0 1.6568542-1.3431458 3-3 3h-2.184c.1184378-.320257.1806856-.6585603.184-1v-16.055c0-1.6568542-1.3431458-3-3-3h-2v-3c-.0049584-3.8639376-3.1360624-6.9950416-7-7h-5v-2c0-1.6568542-1.3431458-3-3-3h-.579l-.207-.884c-1.3167351-5.3806066-6.175166-9.1386946-11.714-9.061-5.5392526-.0779579-10.39798943 3.6807815-11.714 9.062zm42.214 18.883v16.055c0 .5522847-.4477153 1-1 1h-24v-9.055c0-.5522847-.4477153-1-1-1s-1 .4477153-1 1v9.055h-3c-.5522847 0-1-.4477153-1-1v-16.055c0-.5522847.4477153-1 1-1h23v1.746c-.1509844.0843515-.2901846.1882473-.414.309l-2 2c-.3737134.3759099-.5842535.8839369-.586 1.414v5.586c0 1.1045695.8954305 2 2 2h1v2c0 .5522847.4477153 1 1 1s1-.4477153 1-1v-2h1c1.1045695 0 2-.8954305 2-2v-5.586c-.0017465-.5300631-.2122866-1.0380901-.586-1.414l-2-2c-.1238154-.1207527-.2630156-.2246485-.414-.309v-1.746h4c.5522847 0 1 .4477153 1 1zm-10-6v3h-5v-3zm-7 3h-5v-3h5zm9 13.055v-5.586l1.995-2h.01l1.995 2v5.586zm3-16.055v3h-3v-3c0-1.1045695-.8954305-2-2-2h-12c-1.1045695 0-2 .8954305-2 2v3h-3v-3c.0033061-2.7600532 2.2399468-4.9966939 5-5h12c2.7600532.0033061 4.9966939 2.2399468 5 5zm-12-9v2h-5c-3.8639376.0049584-6.9950416 3.1360624-7 7v3h-1c-1.6568542 0-3 1.3431458-3 3v16.055c.0033144.3414397.0655622.679743.184 1h-10.184c-.55228475 0-1-.4477153-1-1v-31.055c0-.5522847.44771525-1 1-1h19.49c.0096607.0004787.0193393.0004787.029 0h.043 4.038c.0096607.0004787.0193393.0004787.029 0h.042 1.329c.5522847 0 1 .4477153 1 1zm-19.212-3c.8567617-2.4071059 3.1574769-3.9960977 5.712-3.945 1.3643005-.0036155 2.6926475.4372945 3.784 1.256.9007151.6802854 1.5737168 1.6179546 1.93 2.689zm15.479-.426.1.426h-2.056c-.4170186-1.7077092-1.409738-3.2195669-2.811-4.281-1.4413245-1.0837191-3.1967118-1.667912-5-1.664-3.6678202-.069841-6.90234083 2.3913423-7.813 5.945h-2.054l.1-.425c1.10571597-4.4762597 5.1568124-7.5953592 9.767-7.52 4.609894-.0754691 8.6608899 3.0431382 9.767 7.519z"/>
 <path id="Shape" d="m49.961 6.4c-.0420755-.67020303-.4176847-1.27455821-1-1.609l-1.744-1.01c-.5481908-.31441226-1.211776-.35473043-1.794-.109l-8.345 3.564-9.441-5.451c-2.4952267-1.47484952-5.7007236-.83392255-7.437 1.487-.9124267 1.27178494-1.239761 2.87208576-.9 4.4.3349939 1.52051097 1.2932703 2.8303852 2.641 3.61l10.579 6.107 1.107 6.772c.0964453.5945556.4557093 1.1139824.978 1.414l1.721.994c.5910626.3407404 1.314744.3578862 1.9212803.04552s1.0128536-.9114614 1.0787197-1.59052l.341-3.5 5.406 3.116c1.0451361.6072139 2.2312862.9296123 3.44.935.1 0 .2-.022.294-.027l.38 1.343c.0935544.5449122.415621 1.023827.885 1.316l2.057 1.473c.619868.3590765 1.3841302.360539 2.0053679.0038376.6212378-.3567014 1.0052547-1.0174811 1.0076321-1.7338376l.027-6.728 4.564-7.892c.5552843-.9614031.2273362-2.1908727-.733-2.748l-2.14-1.234c-.597987-.34082471-1.3287451-.3521426-1.937-.03l-7.415 3.939-2.877-1.657 4.546-3.475c.5333967-.4076825.8276271-1.05506435.784-1.725zm-2.008 8.885 7.9-4.2 2.147 1.239-4.7 8.12c-.0881268.1519198-.1346883.3243701-.135.5l.049 7.056-1.974-1.422c-.027-.019-.079-.132-.108-.147l-2.452-8.677c-.0886975-.353228-.3624169-.6303055-.7145372-.7233034-.3521203-.0929978-.7269577.0127905-.978503.2761576-.2515454.2633671-.3400197.6426645-.2309598.9901458l1.485 5.246c-.7644792-.043217-1.5084217-.2636951-2.173-.644l-6.188-3.566.474-4.872c.0357266-.3554793-.1209066-.7030156-.4108974-.9116953-.2899908-.2086798-.6692827-.2467996-.9950001-.1-.3257173.1467995-.548376.456216-.5841025.8116953l-1.04 10.568-1.724-1-2.235-13.658c-.0889179-.54510502-.602895-.91491778-1.148-.82599994s-.9149178.60289491-.826 1.14799994l.71 4.343-9.162-5.289c-.8643042-.49810645-1.4776687-1.33847549-1.6885603-2.31349165-.2108915-.97501617.0003585-1.99374557.5815603-2.80450835 1.1342218-1.48581957 3.2056342-1.8785473 4.805-.911l20.347 11.748c.2986646.171948.6648214.177994.969.016zm-5.2-4.768-3.509-2.03 6.971-2.974 1.747 1.02z"/>
 <path id="Shape" d="m55 33c0-.5522847-.4477153-1-1-1s-1 .4477153-1 1v3c0 .5522847.4477153 1 1 1s1-.4477153 1-1z"/>
 <path id="Shape" d="m54 46c-.5522847 0-1 .4477153-1 1v3c0 .5522847.4477153 1 1 1s1-.4477153 1-1v-3c0-.5522847-.4477153-1-1-1z"/>
 <path id="Shape" d="m55 40c0-.5522847-.4477153-1-1-1s-1 .4477153-1 1v3c0 .5522847.4477153 1 1 1s1-.4477153 1-1z"/>
 </g>
 </g>
</symbol>
<symbol id="flighthotel-search-icon-active" width="25" height="25" viewBox="0 0 60 60" fill="var(--active-module)">
 <g id="Page-1" fill="" fill-rule="evenodd">
 <g id="067---Flight-Luggage" fill="" fill-rule="nonzero" transform="translate(0 -1)">
 <path id="Shape" d="m9 55h-3v-3c0-.5522847-.44771525-1-1-1s-1 .4477153-1 1v4c0 .5522847.44771525 1 1 1h4c.55228475 0 1-.4477153 1-1s-.44771525-1-1-1z"/>
 <path id="Shape" d="m9 27.95h-4c-.55228475 0-1 .4477153-1 1v4.05c0 .5522847.44771525 1 1 1s1-.4477153 1-1v-3.05h3c.55228475 0 1-.4477153 1-1s-.44771525-1-1-1z"/>
 <path id="Shape" d="m20 42.945c-.5522847 0-1 .4477153-1 1v2c0 .5522847.4477153 1 1 1s1-.4477153 1-1v-2c0-.5522847-.4477153-1-1-1z"/>
 <path id="Shape" d="m3.786 23.062-.207.883h-.579c-1.65685425 0-3 1.3431458-3 3v31.055c0 1.6568542 1.34314575 3 3 3h47c2.7600532-.0033061 4.9966939-2.2399468 5-5v-2c0-.5522847-.4477153-1-1-1s-1 .4477153-1 1v2c0 1.6568542-1.3431458 3-3 3h-2.184c.1184378-.320257.1806856-.6585603.184-1v-16.055c0-1.6568542-1.3431458-3-3-3h-2v-3c-.0049584-3.8639376-3.1360624-6.9950416-7-7h-5v-2c0-1.6568542-1.3431458-3-3-3h-.579l-.207-.884c-1.3167351-5.3806066-6.175166-9.1386946-11.714-9.061-5.5392526-.0779579-10.39798943 3.6807815-11.714 9.062zm42.214 18.883v16.055c0 .5522847-.4477153 1-1 1h-24v-9.055c0-.5522847-.4477153-1-1-1s-1 .4477153-1 1v9.055h-3c-.5522847 0-1-.4477153-1-1v-16.055c0-.5522847.4477153-1 1-1h23v1.746c-.1509844.0843515-.2901846.1882473-.414.309l-2 2c-.3737134.3759099-.5842535.8839369-.586 1.414v5.586c0 1.1045695.8954305 2 2 2h1v2c0 .5522847.4477153 1 1 1s1-.4477153 1-1v-2h1c1.1045695 0 2-.8954305 2-2v-5.586c-.0017465-.5300631-.2122866-1.0380901-.586-1.414l-2-2c-.1238154-.1207527-.2630156-.2246485-.414-.309v-1.746h4c.5522847 0 1 .4477153 1 1zm-10-6v3h-5v-3zm-7 3h-5v-3h5zm9 13.055v-5.586l1.995-2h.01l1.995 2v5.586zm3-16.055v3h-3v-3c0-1.1045695-.8954305-2-2-2h-12c-1.1045695 0-2 .8954305-2 2v3h-3v-3c.0033061-2.7600532 2.2399468-4.9966939 5-5h12c2.7600532.0033061 4.9966939 2.2399468 5 5zm-12-9v2h-5c-3.8639376.0049584-6.9950416 3.1360624-7 7v3h-1c-1.6568542 0-3 1.3431458-3 3v16.055c.0033144.3414397.0655622.679743.184 1h-10.184c-.55228475 0-1-.4477153-1-1v-31.055c0-.5522847.44771525-1 1-1h19.49c.0096607.0004787.0193393.0004787.029 0h.043 4.038c.0096607.0004787.0193393.0004787.029 0h.042 1.329c.5522847 0 1 .4477153 1 1zm-19.212-3c.8567617-2.4071059 3.1574769-3.9960977 5.712-3.945 1.3643005-.0036155 2.6926475.4372945 3.784 1.256.9007151.6802854 1.5737168 1.6179546 1.93 2.689zm15.479-.426.1.426h-2.056c-.4170186-1.7077092-1.409738-3.2195669-2.811-4.281-1.4413245-1.0837191-3.1967118-1.667912-5-1.664-3.6678202-.069841-6.90234083 2.3913423-7.813 5.945h-2.054l.1-.425c1.10571597-4.4762597 5.1568124-7.5953592 9.767-7.52 4.609894-.0754691 8.6608899 3.0431382 9.767 7.519z"/>
 <path id="Shape" d="m49.961 6.4c-.0420755-.67020303-.4176847-1.27455821-1-1.609l-1.744-1.01c-.5481908-.31441226-1.211776-.35473043-1.794-.109l-8.345 3.564-9.441-5.451c-2.4952267-1.47484952-5.7007236-.83392255-7.437 1.487-.9124267 1.27178494-1.239761 2.87208576-.9 4.4.3349939 1.52051097 1.2932703 2.8303852 2.641 3.61l10.579 6.107 1.107 6.772c.0964453.5945556.4557093 1.1139824.978 1.414l1.721.994c.5910626.3407404 1.314744.3578862 1.9212803.04552s1.0128536-.9114614 1.0787197-1.59052l.341-3.5 5.406 3.116c1.0451361.6072139 2.2312862.9296123 3.44.935.1 0 .2-.022.294-.027l.38 1.343c.0935544.5449122.415621 1.023827.885 1.316l2.057 1.473c.619868.3590765 1.3841302.360539 2.0053679.0038376.6212378-.3567014 1.0052547-1.0174811 1.0076321-1.7338376l.027-6.728 4.564-7.892c.5552843-.9614031.2273362-2.1908727-.733-2.748l-2.14-1.234c-.597987-.34082471-1.3287451-.3521426-1.937-.03l-7.415 3.939-2.877-1.657 4.546-3.475c.5333967-.4076825.8276271-1.05506435.784-1.725zm-2.008 8.885 7.9-4.2 2.147 1.239-4.7 8.12c-.0881268.1519198-.1346883.3243701-.135.5l.049 7.056-1.974-1.422c-.027-.019-.079-.132-.108-.147l-2.452-8.677c-.0886975-.353228-.3624169-.6303055-.7145372-.7233034-.3521203-.0929978-.7269577.0127905-.978503.2761576-.2515454.2633671-.3400197.6426645-.2309598.9901458l1.485 5.246c-.7644792-.043217-1.5084217-.2636951-2.173-.644l-6.188-3.566.474-4.872c.0357266-.3554793-.1209066-.7030156-.4108974-.9116953-.2899908-.2086798-.6692827-.2467996-.9950001-.1-.3257173.1467995-.548376.456216-.5841025.8116953l-1.04 10.568-1.724-1-2.235-13.658c-.0889179-.54510502-.602895-.91491778-1.148-.82599994s-.9149178.60289491-.826 1.14799994l.71 4.343-9.162-5.289c-.8643042-.49810645-1.4776687-1.33847549-1.6885603-2.31349165-.2108915-.97501617.0003585-1.99374557.5815603-2.80450835 1.1342218-1.48581957 3.2056342-1.8785473 4.805-.911l20.347 11.748c.2986646.171948.6648214.177994.969.016zm-5.2-4.768-3.509-2.03 6.971-2.974 1.747 1.02z"/>
 <path id="Shape" d="m55 33c0-.5522847-.4477153-1-1-1s-1 .4477153-1 1v3c0 .5522847.4477153 1 1 1s1-.4477153 1-1z"/>
 <path id="Shape" d="m54 46c-.5522847 0-1 .4477153-1 1v3c0 .5522847.4477153 1 1 1s1-.4477153 1-1v-3c0-.5522847-.4477153-1-1-1z"/>
 <path id="Shape" d="m55 40c0-.5522847-.4477153-1-1-1s-1 .4477153-1 1v3c0 .5522847.4477153 1 1 1s1-.4477153 1-1z"/>
 </g>
 </g>
</symbol>

<symbol id="tour-search-icon" width="25" height="25" viewBox="0 0 300 300" fill="#000">
 <g>
 <path d="m188.072 235.802h-79.51l23.089-88.917c7.219 1.661 14.157 5.728 18.453 14.322.572 1.144 1.664 1.937 2.925 2.148 1.252.207 2.553-.2 3.467-1.095.042-.04 4.2-4.055 10.689-5.45 8.553-1.841 17.227 1.563 25.779 10.114.756.757 1.775 1.172 2.828 1.172.211 0 .423-.017.635-.051 1.267-.203 2.359-1.003 2.938-2.148.026-.055 3.885-5.083 18.69-1.934 1.689.361 3.322-.088 4.481-1.227 2.162-2.123 1.577-5.14 1.012-8.056-.152-.783-.36-1.856-.36-2.282 0-55.096-44.823-99.919-99.919-99.919-10.775 0-21.378 1.707-31.516 5.073-2.097.696-3.231 2.96-2.535 5.057.695 2.097 2.96 3.235 5.057 2.535 7.259-2.411 14.782-3.883 22.439-4.422-19.643 10.59-43.697 30.096-57.286 65.133-5.484-6.57-14.075-8.558-21.14-8.566 6.438-15.614 16.994-29.061 30.798-39.149 1.783-1.304 2.173-3.807.869-5.59-1.304-1.785-3.808-2.173-5.59-.869-16.832 12.303-29.223 29.203-35.833 48.875-.453 1.351-.154 2.841.785 3.912.938 1.07 2.378 1.561 3.775 1.288.793-.154 19.415-3.621 23.129 11.236.294 1.175 1.107 2.151 2.206 2.659 1.099.51 2.372.489 3.456-.048 1.016-.5 24.964-12.055 36.9 7.834.993 1.656 3.028 2.367 4.834 1.688.178-.067 9.443-3.439 20.016-3.2l-23.338 89.876h-24.223c-19.851 0-36 16.149-36 36 0 2.209 1.791 4 4 4h176c2.209 0 4-1.791 4-4 0-19.85-16.149-35.999-36-35.999zm-25.809-85.857c5.602-15.87 9.53-41.94.508-80.533 1.213.58 2.411 1.188 3.594 1.819 27.528 34.565 27.842 70.249 26.496 84.975-12.134-9.277-22.97-8.843-30.598-6.261zm52.925 2.454c0 .944.161 1.973.352 2.996-6.382-.902-11.096-.419-14.558.62 1.236-13.836.835-41.835-16.233-71.887 18.678 16.836 30.439 41.205 30.439 68.271zm-148.524-23.047c16.273-42.53 48.921-60.811 68.169-68.146.315.04.628.086.942.129-13.635 13.498-31.467 37.571-36.536 74.139-9.871-8.822-22.834-8.69-32.575-6.122zm40.1 10.442c4.581-40.049 25.355-64.656 38.704-76.597 2.764.688 5.478 1.501 8.137 2.434 11.323 43.675 5.786 70.88-.404 85.6-12.041-15.218-32.776-14.886-46.437-11.437zm-58.407 128.008c1.946-13.551 13.634-24 27.715-24h112c14.081 0 25.769 10.449 27.715 24z"/>
 <path d="m236.072 46.725c-7.211 0-13.077 5.866-13.077 13.077s5.866 13.077 13.077 13.077c7.21 0 13.076-5.866 13.076-13.077s-5.866-13.077-13.076-13.077zm0 18.154c-2.8 0-5.077-2.277-5.077-5.077s2.277-5.077 5.077-5.077c2.799 0 5.076 2.277 5.076 5.077s-2.277 5.077-5.076 5.077z"/>
 <path d="m236.072 75.913c-2.209 0-4 1.791-4 4v11.492c0 2.209 1.791 4 4 4s4-1.791 4-4v-11.492c0-2.209-1.791-4-4-4z"/>
 <path d="m236.072 43.69c2.209 0 4-1.791 4-4v-11.492c0-2.209-1.791-4-4-4s-4 1.791-4 4v11.492c0 2.209 1.791 4 4 4z"/>
 <path d="m267.676 55.802h-11.492c-2.209 0-4 1.791-4 4s1.791 4 4 4h11.492c2.209 0 4-1.791 4-4s-1.791-4-4-4z"/>
 <path d="m204.468 63.802h11.492c2.209 0 4-1.791 4-4s-1.791-4-4-4h-11.492c-2.209 0-4 1.791-4 4s1.791 4 4 4z"/>
 <path d="m253.364 70.822c-1.597-1.529-4.129-1.473-5.655.122-1.528 1.596-1.474 4.128.122 5.655l8.301 7.948c.775.743 1.771 1.111 2.766 1.111 1.053 0 2.104-.413 2.89-1.233 1.528-1.596 1.474-4.128-.122-5.655z"/>
 <path d="m218.779 48.781c.775.743 1.771 1.111 2.766 1.111 1.053 0 2.104-.413 2.89-1.233 1.528-1.596 1.474-4.128-.122-5.655l-8.301-7.948c-1.597-1.53-4.129-1.474-5.655.122-1.528 1.596-1.474 4.128.122 5.655z"/>
 <path d="m250.599 49.893c.994 0 1.99-.369 2.766-1.111l8.301-7.948c1.596-1.527 1.65-4.06.122-5.655-1.526-1.595-4.059-1.651-5.655-.122l-8.301 7.948c-1.596 1.527-1.65 4.06-.122 5.655.784.819 1.835 1.233 2.889 1.233z"/>
 <path d="m218.779 70.822-8.301 7.948c-1.596 1.527-1.65 4.06-.122 5.655.785.82 1.836 1.233 2.89 1.233.994 0 1.99-.369 2.766-1.111l8.301-7.948c1.596-1.527 1.65-4.06.122-5.655-1.527-1.594-4.059-1.651-5.656-.122z"/>
 </g>
</symbol>
<symbol id="tour-search-icon-active" width="25" height="25" viewBox="0 0 300 300" fill="var(--active-module)">
 <g>
 <path d="m188.072 235.802h-79.51l23.089-88.917c7.219 1.661 14.157 5.728 18.453 14.322.572 1.144 1.664 1.937 2.925 2.148 1.252.207 2.553-.2 3.467-1.095.042-.04 4.2-4.055 10.689-5.45 8.553-1.841 17.227 1.563 25.779 10.114.756.757 1.775 1.172 2.828 1.172.211 0 .423-.017.635-.051 1.267-.203 2.359-1.003 2.938-2.148.026-.055 3.885-5.083 18.69-1.934 1.689.361 3.322-.088 4.481-1.227 2.162-2.123 1.577-5.14 1.012-8.056-.152-.783-.36-1.856-.36-2.282 0-55.096-44.823-99.919-99.919-99.919-10.775 0-21.378 1.707-31.516 5.073-2.097.696-3.231 2.96-2.535 5.057.695 2.097 2.96 3.235 5.057 2.535 7.259-2.411 14.782-3.883 22.439-4.422-19.643 10.59-43.697 30.096-57.286 65.133-5.484-6.57-14.075-8.558-21.14-8.566 6.438-15.614 16.994-29.061 30.798-39.149 1.783-1.304 2.173-3.807.869-5.59-1.304-1.785-3.808-2.173-5.59-.869-16.832 12.303-29.223 29.203-35.833 48.875-.453 1.351-.154 2.841.785 3.912.938 1.07 2.378 1.561 3.775 1.288.793-.154 19.415-3.621 23.129 11.236.294 1.175 1.107 2.151 2.206 2.659 1.099.51 2.372.489 3.456-.048 1.016-.5 24.964-12.055 36.9 7.834.993 1.656 3.028 2.367 4.834 1.688.178-.067 9.443-3.439 20.016-3.2l-23.338 89.876h-24.223c-19.851 0-36 16.149-36 36 0 2.209 1.791 4 4 4h176c2.209 0 4-1.791 4-4 0-19.85-16.149-35.999-36-35.999zm-25.809-85.857c5.602-15.87 9.53-41.94.508-80.533 1.213.58 2.411 1.188 3.594 1.819 27.528 34.565 27.842 70.249 26.496 84.975-12.134-9.277-22.97-8.843-30.598-6.261zm52.925 2.454c0 .944.161 1.973.352 2.996-6.382-.902-11.096-.419-14.558.62 1.236-13.836.835-41.835-16.233-71.887 18.678 16.836 30.439 41.205 30.439 68.271zm-148.524-23.047c16.273-42.53 48.921-60.811 68.169-68.146.315.04.628.086.942.129-13.635 13.498-31.467 37.571-36.536 74.139-9.871-8.822-22.834-8.69-32.575-6.122zm40.1 10.442c4.581-40.049 25.355-64.656 38.704-76.597 2.764.688 5.478 1.501 8.137 2.434 11.323 43.675 5.786 70.88-.404 85.6-12.041-15.218-32.776-14.886-46.437-11.437zm-58.407 128.008c1.946-13.551 13.634-24 27.715-24h112c14.081 0 25.769 10.449 27.715 24z"/>
 <path d="m236.072 46.725c-7.211 0-13.077 5.866-13.077 13.077s5.866 13.077 13.077 13.077c7.21 0 13.076-5.866 13.076-13.077s-5.866-13.077-13.076-13.077zm0 18.154c-2.8 0-5.077-2.277-5.077-5.077s2.277-5.077 5.077-5.077c2.799 0 5.076 2.277 5.076 5.077s-2.277 5.077-5.076 5.077z"/>
 <path d="m236.072 75.913c-2.209 0-4 1.791-4 4v11.492c0 2.209 1.791 4 4 4s4-1.791 4-4v-11.492c0-2.209-1.791-4-4-4z"/>
 <path d="m236.072 43.69c2.209 0 4-1.791 4-4v-11.492c0-2.209-1.791-4-4-4s-4 1.791-4 4v11.492c0 2.209 1.791 4 4 4z"/>
 <path d="m267.676 55.802h-11.492c-2.209 0-4 1.791-4 4s1.791 4 4 4h11.492c2.209 0 4-1.791 4-4s-1.791-4-4-4z"/>
 <path d="m204.468 63.802h11.492c2.209 0 4-1.791 4-4s-1.791-4-4-4h-11.492c-2.209 0-4 1.791-4 4s1.791 4 4 4z"/>
 <path d="m253.364 70.822c-1.597-1.529-4.129-1.473-5.655.122-1.528 1.596-1.474 4.128.122 5.655l8.301 7.948c.775.743 1.771 1.111 2.766 1.111 1.053 0 2.104-.413 2.89-1.233 1.528-1.596 1.474-4.128-.122-5.655z"/>
 <path d="m218.779 48.781c.775.743 1.771 1.111 2.766 1.111 1.053 0 2.104-.413 2.89-1.233 1.528-1.596 1.474-4.128-.122-5.655l-8.301-7.948c-1.597-1.53-4.129-1.474-5.655.122-1.528 1.596-1.474 4.128.122 5.655z"/>
 <path d="m250.599 49.893c.994 0 1.99-.369 2.766-1.111l8.301-7.948c1.596-1.527 1.65-4.06.122-5.655-1.526-1.595-4.059-1.651-5.655-.122l-8.301 7.948c-1.596 1.527-1.65 4.06-.122 5.655.784.819 1.835 1.233 2.889 1.233z"/>
 <path d="m218.779 70.822-8.301 7.948c-1.596 1.527-1.65 4.06-.122 5.655.785.82 1.836 1.233 2.89 1.233.994 0 1.99-.369 2.766-1.111l8.301-7.948c1.596-1.527 1.65-4.06.122-5.655-1.527-1.594-4.059-1.651-5.656-.122z"/>
 </g>
</symbol>

<symbol id="insurance-search-icon" width="25" height="25" viewBox="0 0 64 64" fill="#000">
 <g id="Outline">
 <path d="M36,24a1,1,0,0,0,1-1,5,5,0,0,0-10,0,1,1,0,0,0,1,1Zm-4-4a3.006,3.006,0,0,1,2.829,2H29.171A3.006,3.006,0,0,1,32,20Z"/>
 <path d="M2.8,26.979l9.941,2.073a3.011,3.011,0,1,0,5.116,1.067L26.8,31.985a8.353,8.353,0,0,0,10.406-.007l8.941-1.862A2.972,2.972,0,0,0,46,31a3,3,0,1,0,5.261-1.95L61.2,26.979A1,1,0,0,0,61,25H40.953Q41,24.507,41,24a10.209,10.209,0,0,0-2.713-7H46a1,1,0,0,0,0-2H35.531A8.334,8.334,0,0,0,33,14.264V5a1,1,0,0,0-2,0v9.264A8.334,8.334,0,0,0,28.469,15H18a1,1,0,0,0,0,2h7.713A10.209,10.209,0,0,0,23,24q0,.507.047,1H3a1,1,0,0,0-.2,1.979ZM15,32a1,1,0,1,1,1-1A1,1,0,0,1,15,32Zm34,0a1,1,0,1,1,1-1A1,1,0,0,1,49,32Zm-8.435-5H51.3l-11.83,2.465A10.147,10.147,0,0,0,40.565,27ZM32,16.2c3.859,0,7,3.5,7,7.8s-3.141,7.8-7,7.8-7-3.5-7-7.8S28.141,16.2,32,16.2ZM23.435,27a10.173,10.173,0,0,0,1.1,2.47L12.693,27Z"/>
 <path d="M61.5,36.622A4.733,4.733,0,0,0,55.394,35l-6.409,3.278a5.516,5.516,0,0,0-7-1.714L33.917,40.7a2.946,2.946,0,0,1-2.721-.019l-5.5-2.92a12.774,12.774,0,0,0-13.341.809l-.622-2.962a1,1,0,0,0-1.188-.772L2.79,36.509a1,1,0,0,0-.769,1.183L6.536,59.206A1,1,0,0,0,7.515,60a1.015,1.015,0,0,0,.211-.022l7.757-1.671a1,1,0,0,0,.768-1.183l-.4-1.924,2.651-.571a6.834,6.834,0,0,1,2.351-.089l12.468,1.366A10.694,10.694,0,0,0,40.7,54.179l19.973-13.4A3.02,3.02,0,0,0,61.5,36.622ZM8.287,57.811l-4.1-19.556,5.8-1.249L14.09,56.562Zm51.274-18.69-19.973,13.4a8.734,8.734,0,0,1-6.029,1.4L21.09,52.554a8.765,8.765,0,0,0-3.013.12l-2.641.568L12.8,40.7l.683-.477a10.781,10.781,0,0,1,11.275-.693l5.5,2.92a4.941,4.941,0,0,0,4.572.032L42.9,38.34a3.536,3.536,0,0,1,4.671,1.378,1.013,1.013,0,0,1-.352,1.375l-11.128,6.6a8.827,8.827,0,0,1-6.473,1.025l-10.036-2.4-.465,1.945,10.047,2.4a10.811,10.811,0,0,0,7.946-1.253l11.129-6.6a3,3,0,0,0,1.453-2.653L56.3,36.778a2.734,2.734,0,0,1,3.53.947A1.024,1.024,0,0,1,59.561,39.121Z"/>
 <rect x="6.7" y="39.564" width="2" height="1.998" transform="translate(-8.162 2.444) rotate(-11.845)"/>
 </g>
</symbol>
<symbol id="insurance-search-icon-active" width="25" height="25" viewBox="0 0 64 64" fill="var(--active-module)">
 <g id="Outline">
 <path d="M36,24a1,1,0,0,0,1-1,5,5,0,0,0-10,0,1,1,0,0,0,1,1Zm-4-4a3.006,3.006,0,0,1,2.829,2H29.171A3.006,3.006,0,0,1,32,20Z"/>
 <path d="M2.8,26.979l9.941,2.073a3.011,3.011,0,1,0,5.116,1.067L26.8,31.985a8.353,8.353,0,0,0,10.406-.007l8.941-1.862A2.972,2.972,0,0,0,46,31a3,3,0,1,0,5.261-1.95L61.2,26.979A1,1,0,0,0,61,25H40.953Q41,24.507,41,24a10.209,10.209,0,0,0-2.713-7H46a1,1,0,0,0,0-2H35.531A8.334,8.334,0,0,0,33,14.264V5a1,1,0,0,0-2,0v9.264A8.334,8.334,0,0,0,28.469,15H18a1,1,0,0,0,0,2h7.713A10.209,10.209,0,0,0,23,24q0,.507.047,1H3a1,1,0,0,0-.2,1.979ZM15,32a1,1,0,1,1,1-1A1,1,0,0,1,15,32Zm34,0a1,1,0,1,1,1-1A1,1,0,0,1,49,32Zm-8.435-5H51.3l-11.83,2.465A10.147,10.147,0,0,0,40.565,27ZM32,16.2c3.859,0,7,3.5,7,7.8s-3.141,7.8-7,7.8-7-3.5-7-7.8S28.141,16.2,32,16.2ZM23.435,27a10.173,10.173,0,0,0,1.1,2.47L12.693,27Z"/>
 <path d="M61.5,36.622A4.733,4.733,0,0,0,55.394,35l-6.409,3.278a5.516,5.516,0,0,0-7-1.714L33.917,40.7a2.946,2.946,0,0,1-2.721-.019l-5.5-2.92a12.774,12.774,0,0,0-13.341.809l-.622-2.962a1,1,0,0,0-1.188-.772L2.79,36.509a1,1,0,0,0-.769,1.183L6.536,59.206A1,1,0,0,0,7.515,60a1.015,1.015,0,0,0,.211-.022l7.757-1.671a1,1,0,0,0,.768-1.183l-.4-1.924,2.651-.571a6.834,6.834,0,0,1,2.351-.089l12.468,1.366A10.694,10.694,0,0,0,40.7,54.179l19.973-13.4A3.02,3.02,0,0,0,61.5,36.622ZM8.287,57.811l-4.1-19.556,5.8-1.249L14.09,56.562Zm51.274-18.69-19.973,13.4a8.734,8.734,0,0,1-6.029,1.4L21.09,52.554a8.765,8.765,0,0,0-3.013.12l-2.641.568L12.8,40.7l.683-.477a10.781,10.781,0,0,1,11.275-.693l5.5,2.92a4.941,4.941,0,0,0,4.572.032L42.9,38.34a3.536,3.536,0,0,1,4.671,1.378,1.013,1.013,0,0,1-.352,1.375l-11.128,6.6a8.827,8.827,0,0,1-6.473,1.025l-10.036-2.4-.465,1.945,10.047,2.4a10.811,10.811,0,0,0,7.946-1.253l11.129-6.6a3,3,0,0,0,1.453-2.653L56.3,36.778a2.734,2.734,0,0,1,3.53.947A1.024,1.024,0,0,1,59.561,39.121Z"/>
 <rect x="6.7" y="39.564" width="2" height="1.998" transform="translate(-8.162 2.444) rotate(-11.845)"/>
 </g>
</symbol>

<symbol id="cip-search-icon" width="25" height="25" viewBox="0 0 25.000000 25.000000" fill="#000">
<g transform="translate(0.000000,25.000000) scale(0.100000,-0.100000)" stroke="none">
<path d="M91 238 c0 -7 4 -22 9 -33 7 -16 9 -14 7 13 -1 17 -5 32 -9 32 -4 0 -8 -6 -7 -12z"/>
<path d="M67 234 c-3 -4 -2 -14 3 -24 5 -10 7 -20 5 -24 -3 -3 0 -2 5 2 6 5 7 18 2 31 -4 12 -11 19 -15 15z"/>
<path d="M123 213 c1 -18 5 -33 10 -33 9 0 8 19 -3 45 -7 16 -8 14 -7 -12z"/>
<path d="M7 163 c-13 -12 -7 -79 9 -101 14 -20 14 -22 -1 -22 -10 0 -15 -7 -13 -18 3 -14 17 -17 99 -20 76 -2 99 0 109 13 10 12 8 16 -11 24 l-24 9 30 12 c36 14 45 26 45 63 0 20 -5 27 -19 27 -11 0 -23 4 -26 10 -7 12 -115 11 -115 -1 0 -5 24 -9 54 -9 l55 0 -4 -31 c-3 -17 -11 -42 -20 -55 -13 -20 -24 -24 -70 -24 -46 0 -56 4 -74 26 -25 32 -28 84 -6 84 8 0 15 5 15 10 0 11 -23 14 -33 3z m233 -47 c0 -24 -25 -54 -37 -43 -3 4 2 9 11 13 19 7 22 40 4 47 -8 3 -6 6 5 6 11 1 17 -6 17 -23z m-20 -6 c0 -5 -5 -10 -11 -10 -5 0 -7 5 -4 10 3 6 8 10 11 10 2 0 4 -4 4 -10z m-20 -90 c0 -6 -37 -10 -90 -10 -53 0 -90 4 -90 10 0 6 37 10 90 10 53 0 90 -4 90 -10z"/>
<path d="M163 89 c-12 -30 -11 -32 3 -17 9 8 14 23 12 33 -2 12 -7 7 -15 -16z"/>
</g>
</symbol>
<symbol id="cip-search-icon-active" width="25" height="25" viewBox="0 0 25 25" fill="var(--active-module)">
<g transform="translate(0.000000,25.000000) scale(0.100000,-0.100000)" stroke="none">
<path d="M91 238 c0 -7 4 -22 9 -33 7 -16 9 -14 7 13 -1 17 -5 32 -9 32 -4 0 -8 -6 -7 -12z"/>
<path d="M67 234 c-3 -4 -2 -14 3 -24 5 -10 7 -20 5 -24 -3 -3 0 -2 5 2 6 5 7 18 2 31 -4 12 -11 19 -15 15z"/>
<path d="M123 213 c1 -18 5 -33 10 -33 9 0 8 19 -3 45 -7 16 -8 14 -7 -12z"/>
<path d="M7 163 c-13 -12 -7 -79 9 -101 14 -20 14 -22 -1 -22 -10 0 -15 -7 -13 -18 3 -14 17 -17 99 -20 76 -2 99 0 109 13 10 12 8 16 -11 24 l-24 9 30 12 c36 14 45 26 45 63 0 20 -5 27 -19 27 -11 0 -23 4 -26 10 -7 12 -115 11 -115 -1 0 -5 24 -9 54 -9 l55 0 -4 -31 c-3 -17 -11 -42 -20 -55 -13 -20 -24 -24 -70 -24 -46 0 -56 4 -74 26 -25 32 -28 84 -6 84 8 0 15 5 15 10 0 11 -23 14 -33 3z m233 -47 c0 -24 -25 -54 -37 -43 -3 4 2 9 11 13 19 7 22 40 4 47 -8 3 -6 6 5 6 11 1 17 -6 17 -23z m-20 -6 c0 -5 -5 -10 -11 -10 -5 0 -7 5 -4 10 3 6 8 10 11 10 2 0 4 -4 4 -10z m-20 -90 c0 -6 -37 -10 -90 -10 -53 0 -90 4 -90 10 0 6 37 10 90 10 53 0 90 -4 90 -10z"/>
<path d="M163 89 c-12 -30 -11 -32 3 -17 9 8 14 23 12 33 -2 12 -7 7 -15 -16z"/>
</g>
</symbol>

<symbol id="visa-search-icon" width="25" height="25" viewBox="0 0 25 25" fill="#000">
<g transform="translate(0.000000,25.000000) scale(0.100000,-0.100000)" stroke="none">
<path d="M12 198 c-16 -16 -16 -130 0 -146 16 -16 210 -16 226 0 16 16 16 130 0 146 -16 16 -210 16 -226 0z m223 -73 l0 -70 -110 0 -110 0 -3 64 c-2 45 1 67 10 73 7 4 58 7 113 6 l100 -3 0 -70z"/>
<path d="M58 129 c5 -34 17 -37 32 -10 15 30 11 39 -5 11 -14 -24 -14 -24 -15 -3 0 12 -4 24 -8 27 -5 3 -6 -8 -4 -25z"/>
<path d="M142 148 c-9 -9 -9 -15 0 -26 9 -10 8 -16 -3 -23 -10 -6 -11 -9 -1 -9 17 0 29 33 13 38 -9 3 -9 7 0 18 14 17 8 19 -9 2z"/>
<path d="M183 133 c-3 -10 -7 -20 -9 -23 -1 -3 6 -6 17 -6 13 0 19 7 19 23 0 27 -18 31 -27 6z"/>
<path d="M107 120 c-3 -11 -1 -20 4 -20 5 0 9 9 9 20 0 11 -2 20 -4 20 -2 0 -6 -9 -9 -20z"/>
</g>
</symbol>
<symbol id="visa-search-icon-active" width="25" height="25" viewBox="0 0 25 25" fill="var(--active-module)">
<g transform="translate(0.000000,25.000000) scale(0.100000,-0.100000)" stroke="none">
<path d="M12 198 c-16 -16 -16 -130 0 -146 16 -16 210 -16 226 0 16 16 16 130 0 146 -16 16 -210 16 -226 0z m223 -73 l0 -70 -110 0 -110 0 -3 64 c-2 45 1 67 10 73 7 4 58 7 113 6 l100 -3 0 -70z"/>
<path d="M58 129 c5 -34 17 -37 32 -10 15 30 11 39 -5 11 -14 -24 -14 -24 -15 -3 0 12 -4 24 -8 27 -5 3 -6 -8 -4 -25z"/>
<path d="M142 148 c-9 -9 -9 -15 0 -26 9 -10 8 -16 -3 -23 -10 -6 -11 -9 -1 -9 17 0 29 33 13 38 -9 3 -9 7 0 18 14 17 8 19 -9 2z"/>
<path d="M183 133 c-3 -10 -7 -20 -9 -23 -1 -3 6 -6 17 -6 13 0 19 7 19 23 0 27 -18 31 -27 6z"/>
<path d="M107 120 c-3 -11 -1 -20 4 -20 5 0 9 9 9 20 0 11 -2 20 -4 20 -2 0 -6 -9 -9 -20z"/>
</g>
</symbol>

<symbol id="service-search-icon" width="24" height="24" viewBox="0 0 24 24" fill="#000">
  <path d="M3 11h18a2 2 0 0 1 2 2v4h-2a3 3 0 1 1-6 0h-4a3 3 0 1 1-6 0H3v-4a2 2 0 0 1 2-2zm16 2H5v2h14v-2zm-10 5a1 1 0 1 0-2 0 1 1 0 0 0 2 0zm10 0a1 1 0 1 0-2 0 1 1 0 0 0 2 0zM10 2h4v2h-4V2zm2 4a6 6 0 0 1 6 6h-2a4 4 0 0 0-8 0H6a6 6 0 0 1 6-6z"/>
</symbol>
<symbol id="service-search-icon-active" width="24" height="24" viewBox="0 0 24 24" fill="var(--active-module)">
<path d="M3 11h18a2 2 0 0 1 2 2v4h-2a3 3 0 1 1-6 0h-4a3 3 0 1 1-6 0H3v-4a2 2 0 0 1 2-2zm16 2H5v2h14v-2zm-10 5a1 1 0 1 0-2 0 1 1 0 0 0 2 0zm10 0a1 1 0 1 0-2 0 1 1 0 0 0 2 0zM10 2h4v2h-4V2zm2 4a6 6 0 0 1 6 6h-2a4 4 0 0 0-8 0H6a6 6 0 0 1 6-6z"/>
</symbol>

<symbol id="train-search-icon" width="24" height="24" viewBox="0 0 24 24" fill="#000">
  <path d="M4 3a2 2 0 0 1 2-2h12a2 2 0 0 1 2 2v14a2 2 0 0 1-2 2l2 2h-2.5l-1.5-1.5h-7L6.5 21H4l2-2a2 2 0 0 1-2-2V3zm2 0v10h12V3H6zm1 12a1 1 0 1 0 0 2 1 1 0 0 0 0-2zm10 0a1 1 0 1 0 0 2 1 1 0 0 0 0-2z"/>
</symbol>

<symbol id="train-search-icon-active" width="24" height="24" viewBox="0 0 24 24" fill="var(--active-module)">
  <path d="M4 3a2 2 0 0 1 2-2h12a2 2 0 0 1 2 2v14a2 2 0 0 1-2 2l2 2h-2.5l-1.5-1.5h-7L6.5 21H4l2-2a2 2 0 0 1-2-2V3zm2 0v10h12V3H6zm1 12a1 1 0 1 0 0 2 1 1 0 0 0 0-2zm10 0a1 1 0 1 0 0 2 1 1 0 0 0 0-2z"/>
</symbol>

<symbol id="bus-search-icon" width="24" height="24" viewBox="0 0 24 24" fill="#000">
<path d="M4 3c-1.1 0-2 .9-2 2v11c0 1.1.9 2 2 2v2a1 1 0 0 0 2 0v-2h12v2a1 1 0 0 0 2 0v-2c1.1 0 2-.9 2-2V5c0-1.1-.9-2-2-2H4Zm0 2h16v6H4V5Zm0 8h16v3H4v-3Zm2 1.5a1.5 1.5 0 1 1 0 3 1.5 1.5 0 0 1 0-3Zm12 0a1.5 1.5 0 1 1 0 3 1.5 1.5 0 0 1 0-3Z"/>
</symbol>

<symbol id="bus-search-icon-active" width="24" height="24" viewBox="0 0 24 24" fill="var(--active-module)">
<path d="M4 3c-1.1 0-2 .9-2 2v11c0 1.1.9 2 2 2v2a1 1 0 0 0 2 0v-2h12v2a1 1 0 0 0 2 0v-2c1.1 0 2-.9 2-2V5c0-1.1-.9-2-2-2H4Zm0 2h16v6H4V5Zm0 8h16v3H4v-3Zm2 1.5a1.5 1.5 0 1 1 0 3 1.5 1.5 0 0 1 0-3Zm12 0a1.5 1.5 0 1 1 0 3 1.5 1.5 0 0 1 0-3Z"/>
</symbol>


<symbol id="engine-departureflight-icon" width="15" height="19" viewBox="0 0 15 19" fill="#000">
<g transform="translate(0.000000,19.000000) scale(0.100000,-0.100000)" fill="#000000" stroke="none">
<path d="M42 180 c-26 -11 -45 -54 -37 -81 4 -10 21 -36 39 -58 l33 -40 24 32 c54 71 59 92 32 125 -22 25 -60 35 -91 22z m62 -53 c9 -15 7 -21 -8 -32 -35 -26 -74 13 -44 43 16 16 38 12 52 -11z"/>
</g>
</symbol>

<symbol id="engine-destinationflight-icon" width="15" height="19" viewBox="0 0 15 19" fill="#000">
<g transform="translate(0.000000,19.000000) scale(0.100000,-0.100000)" fill="#000000" stroke="none">
<path d="M42 180 c-26 -11 -45 -54 -37 -81 4 -10 21 -36 39 -58 l33 -40 24 32 c54 71 59 92 32 125 -22 25 -60 35 -91 22z m62 -53 c9 -15 7 -21 -8 -32 -35 -26 -74 13 -44 43 16 16 38 12 52 -11z"/>
</g>
</symbol>

<symbol id="engine-departurehotel-icon" width="15" height="19" viewBox="0 0 15 19" fill="#000">
<g transform="translate(0.000000,19.000000) scale(0.100000,-0.100000)" fill="#000000" stroke="none">
<path d="M42 180 c-26 -11 -45 -54 -37 -81 4 -10 21 -36 39 -58 l33 -40 24 32 c54 71 59 92 32 125 -22 25 -60 35 -91 22z m62 -53 c9 -15 7 -21 -8 -32 -35 -26 -74 13 -44 43 16 16 38 12 52 -11z"/>
</g>
</symbol>

<symbol id="engine-departuretour-icon" width="15" height="19" viewBox="0 0 15 19" fill="#000">
<g transform="translate(0.000000,19.000000) scale(0.100000,-0.100000)" fill="#000000" stroke="none">
<path d="M42 180 c-26 -11 -45 -54 -37 -81 4 -10 21 -36 39 -58 l33 -40 24 32 c54 71 59 92 32 125 -22 25 -60 35 -91 22z m62 -53 c9 -15 7 -21 -8 -32 -35 -26 -74 13 -44 43 16 16 38 12 52 -11z"/>
</g>
</symbol>

<symbol id="engine-departureflighthotel-icon" width="15" height="19" viewBox="0 0 15 19" fill="#000">
<g transform="translate(0.000000,19.000000) scale(0.100000,-0.100000)" fill="#000000" stroke="none">
<path d="M42 180 c-26 -11 -45 -54 -37 -81 4 -10 21 -36 39 -58 l33 -40 24 32 c54 71 59 92 32 125 -22 25 -60 35 -91 22z m62 -53 c9 -15 7 -21 -8 -32 -35 -26 -74 13 -44 43 16 16 38 12 52 -11z"/>
</g>
</symbol>

<symbol id="engine-destinationflighthotel-icon" width="15" height="19" viewBox="0 0 15 19" fill="#000">
<g transform="translate(0.000000,19.000000) scale(0.100000,-0.100000)" fill="#000000" stroke="none">
<path d="M42 180 c-26 -11 -45 -54 -37 -81 4 -10 21 -36 39 -58 l33 -40 24 32 c54 71 59 92 32 125 -22 25 -60 35 -91 22z m62 -53 c9 -15 7 -21 -8 -32 -35 -26 -74 13 -44 43 16 16 38 12 52 -11z"/>
</g>
</symbol>

<symbol id="engine-departureinsurance-icon" width="15" height="19" viewBox="0 0 15 19" fill="#000">
<g transform="translate(0.000000,19.000000) scale(0.100000,-0.100000)" fill="#000000" stroke="none">
<path d="M42 180 c-26 -11 -45 -54 -37 -81 4 -10 21 -36 39 -58 l33 -40 24 32 c54 71 59 92 32 125 -22 25 -60 35 -91 22z m62 -53 c9 -15 7 -21 -8 -32 -35 -26 -74 13 -44 43 16 16 38 12 52 -11z"/>
</g>
</symbol>

<symbol id="engine-departurecip-icon" width="15" height="19" viewBox="0 0 15 19" fill="#000">
<g transform="translate(0.000000,19.000000) scale(0.100000,-0.100000)" fill="#000000" stroke="none">
<path d="M42 180 c-26 -11 -45 -54 -37 -81 4 -10 21 -36 39 -58 l33 -40 24 32 c54 71 59 92 32 125 -22 25 -60 35 -91 22z m62 -53 c9 -15 7 -21 -8 -32 -35 -26 -74 13 -44 43 16 16 38 12 52 -11z"/>
</g>
</symbol>

<symbol id="engine-departurevisa-icon" width="15" height="19" viewBox="0 0 15 19" fill="#000">
<g transform="translate(0.000000,19.000000) scale(0.100000,-0.100000)" fill="#000000" stroke="none">
<path d="M42 180 c-26 -11 -45 -54 -37 -81 4 -10 21 -36 39 -58 l33 -40 24 32 c54 71 59 92 32 125 -22 25 -60 35 -91 22z m62 -53 c9 -15 7 -21 -8 -32 -35 -26 -74 13 -44 43 16 16 38 12 52 -11z"/>
</g>
</symbol>

<symbol id="engine-departureservice-icon" width="15" height="19" viewBox="0 0 15 19" fill="#000">
<g transform="translate(0.000000,19.000000) scale(0.100000,-0.100000)" fill="#000000" stroke="none">
<path d="M42 180 c-26 -11 -45 -54 -37 -81 4 -10 21 -36 39 -58 l33 -40 24 32 c54 71 59 92 32 125 -22 25 -60 35 -91 22z m62 -53 c9 -15 7 -21 -8 -32 -35 -26 -74 13 -44 43 16 16 38 12 52 -11z"/>
</g>
</symbol>

<symbol id="engine-departuretrain-icon" width="15" height="19" viewBox="0 0 15 19" fill="#000">
<g transform="translate(0.000000,19.000000) scale(0.100000,-0.100000)" fill="#000000" stroke="none">
<path d="M42 180 c-26 -11 -45 -54 -37 -81 4 -10 21 -36 39 -58 l33 -40 24 32 c54 71 59 92 32 125 -22 25 -60 35 -91 22z m62 -53 c9 -15 7 -21 -8 -32 -35 -26 -74 13 -44 43 16 16 38 12 52 -11z"/>
</g>
</symbol>

<symbol id="engine-destinationtrain-icon" width="15" height="19" viewBox="0 0 15 19" fill="#000">
<g transform="translate(0.000000,19.000000) scale(0.100000,-0.100000)" fill="#000000" stroke="none">
<path d="M42 180 c-26 -11 -45 -54 -37 -81 4 -10 21 -36 39 -58 l33 -40 24 32 c54 71 59 92 32 125 -22 25 -60 35 -91 22z m62 -53 c9 -15 7 -21 -8 -32 -35 -26 -74 13 -44 43 16 16 38 12 52 -11z"/>
</g>
</symbol>

<symbol id="engine-departurebus-icon" width="15" height="19" viewBox="0 0 15 19" fill="#000">
<g transform="translate(0.000000,19.000000) scale(0.100000,-0.100000)" fill="#000000" stroke="none">
<path d="M42 180 c-26 -11 -45 -54 -37 -81 4 -10 21 -36 39 -58 l33 -40 24 32 c54 71 59 92 32 125 -22 25 -60 35 -91 22z m62 -53 c9 -15 7 -21 -8 -32 -35 -26 -74 13 -44 43 16 16 38 12 52 -11z"/>
</g>
</symbol>

<symbol id="engine-destinationbus-icon" width="15" height="19" viewBox="0 0 15 19" fill="#000">
<g transform="translate(0.000000,19.000000) scale(0.100000,-0.100000)" fill="#000000" stroke="none">
<path d="M42 180 c-26 -11 -45 -54 -37 -81 4 -10 21 -36 39 -58 l33 -40 24 32 c54 71 59 92 32 125 -22 25 -60 35 -91 22z m62 -53 c9 -15 7 -21 -8 -32 -35 -26 -74 13 -44 43 16 16 38 12 52 -11z"/>
</g>
</symbol>

<symbol id="engine-search-icon" class="inline-block align-middle" width="32" height="33" viewBox="0 0 32 33" fill="none" xmlns="http://www.w3.org/2000/svg">
 <path d="M23.4946 24.0389C24.01 23.527 24.8361 23.527 25.3515 24.0389L28.7577 26.7884H28.8168C29.5059 27.4849 29.5059 28.6142 28.8168 29.3108C28.1277 30.0073 27.0104 30.0073 26.3213 29.3108L23.4946 26.0711L23.3873 25.9501C23.1875 25.6972 23.0772 25.3818 23.0772 25.055C23.0772 24.6737 23.2274 24.308 23.4946 24.0389ZM14.1038 3.1665C17.1371 3.1665 20.0461 4.38442 22.1909 6.55232C24.3357 8.72022 25.5407 11.6605 25.5407 14.7264C25.5407 21.1108 20.4202 26.2863 14.1038 26.2863C7.78745 26.2863 2.66699 21.1108 2.66699 14.7264C2.66699 8.34205 7.78745 3.1665 14.1038 3.1665Z" fill="white"/>
</symbol>

<symbol id="engine-exchange-icon" width="15" height="11" viewBox="0 0 187 131" fill="#fff">
<g transform="translate(0.000000,131.000000) scale(0.100000,-0.100000)" stroke="none">
<path d="M416 1289 c-44 -35 -395 -389 -407 -411 -15 -27 -3 -81 22 -104 20 -18 51 -19 709 -22 l688 -2 31 26 c26 21 31 33 31 69 0 35 -5 48 -26 64 -26 21 -35 21 -585 21 -308 0 -559 3 -559 7 0 3 54 61 120 129 84 86 120 129 120 146 0 39 -35 84 -70 92 -45 8 -44 9 -74 -15z"/>
<path d="M411 534 c-26 -21 -31 -33 -31 -69 0 -35 5 -48 26 -64 26 -21 35 -21 585 -21 308 0 559 -3 559 -7 0 -3 -54 -61 -120 -129 -129 -131 -135 -144 -101 -200 23 -39 80 -54 115 -31 32 21 404 395 417 419 15 27 3 81 -22 104 -20 18 -51 19 -709 22 l-688 2 -31 -26z"/>
</g>
</symbol>


<symbol id="engine-calendar-icon" width="15" height="15" viewBox="0 0 182 182" fill="#000000">
<g transform="translate(0.000000,182.000000) scale(0.100000,-0.100000)" fill="#000000" stroke="none">
<path d="M288 1748 l-3 -73 -75 -5 c-56 -4 -84 -11 -107 -28 -51 -36 -81 -78 -92 -132 -15 -71 -15 -1279 0 -1352 9 -43 20 -62 60 -100 30 -29 60 -49 81 -53 18 -3 373 -5 789 -3 l756 3 36 27 c19 16 46 43 59 60 l23 33 0 710 0 710 -23 33 c-46 64 -87 86 -171 92 l-76 5 -3 73 -3 72 -64 0 -65 0 0 -75 0 -75 -495 0 -495 0 0 75 0 75 -65 0 -64 0 -3 -72z m2 -278 l0 -70 65 0 65 0 0 70 0 70 495 0 495 0 0 -70 0 -70 65 0 65 0 0 70 0 70 55 0 c88 0 95 -13 95 -165 l0 -125 -775 0 -775 0 0 125 c0 152 7 165 95 165 l55 0 0 -70z m1400 -825 c0 -462 -1 -476 -20 -495 -20 -20 -33 -20 -755 -20 -722 0 -735 0 -755 20 -19 19 -20 33 -20 495 l0 475 775 0 775 0 0 -475z"/>
<path d="M570 905 l0 -65 65 0 65 0 0 65 0 65 -65 0 -65 0 0 -65z"/>
<path d="M850 905 l0 -65 65 0 65 0 0 65 0 65 -65 0 -65 0 0 -65z"/>
<path d="M1130 905 l0 -65 65 0 65 0 0 65 0 65 -65 0 -65 0 0 -65z"/>
<path d="M1410 905 l0 -65 65 0 65 0 0 65 0 65 -65 0 -65 0 0 -65z"/>
<path d="M290 625 l0 -65 65 0 65 0 0 65 0 65 -65 0 -65 0 0 -65z"/>
<path d="M570 625 l0 -65 65 0 65 0 0 65 0 65 -65 0 -65 0 0 -65z"/>
<path d="M850 625 l0 -65 65 0 65 0 0 65 0 65 -65 0 -65 0 0 -65z"/>
<path d="M1130 625 l0 -65 65 0 65 0 0 65 0 65 -65 0 -65 0 0 -65z"/>
<path d="M1410 625 l0 -65 65 0 65 0 0 65 0 65 -65 0 -65 0 0 -65z"/>
<path d="M290 345 l0 -65 65 0 65 0 0 65 0 65 -65 0 -65 0 0 -65z"/>
<path d="M570 345 l0 -65 65 0 65 0 0 65 0 65 -65 0 -65 0 0 -65z"/>
<path d="M850 345 l0 -65 65 0 65 0 0 65 0 65 -65 0 -65 0 0 -65z"/>
</g>
</symbol>

<symbol id="engine-departurecalendar-icon" width="15" height="15" viewBox="0 0 182 182" fill="#000000">
<g transform="translate(0.000000,182.000000) scale(0.100000,-0.100000)" fill="#000000" stroke="none">
<path d="M288 1748 l-3 -73 -75 -5 c-56 -4 -84 -11 -107 -28 -51 -36 -81 -78 -92 -132 -15 -71 -15 -1279 0 -1352 9 -43 20 -62 60 -100 30 -29 60 -49 81 -53 18 -3 373 -5 789 -3 l756 3 36 27 c19 16 46 43 59 60 l23 33 0 710 0 710 -23 33 c-46 64 -87 86 -171 92 l-76 5 -3 73 -3 72 -64 0 -65 0 0 -75 0 -75 -495 0 -495 0 0 75 0 75 -65 0 -64 0 -3 -72z m2 -278 l0 -70 65 0 65 0 0 70 0 70 495 0 495 0 0 -70 0 -70 65 0 65 0 0 70 0 70 55 0 c88 0 95 -13 95 -165 l0 -125 -775 0 -775 0 0 125 c0 152 7 165 95 165 l55 0 0 -70z m1400 -825 c0 -462 -1 -476 -20 -495 -20 -20 -33 -20 -755 -20 -722 0 -735 0 -755 20 -19 19 -20 33 -20 495 l0 475 775 0 775 0 0 -475z"/>
<path d="M570 905 l0 -65 65 0 65 0 0 65 0 65 -65 0 -65 0 0 -65z"/>
<path d="M850 905 l0 -65 65 0 65 0 0 65 0 65 -65 0 -65 0 0 -65z"/>
<path d="M1130 905 l0 -65 65 0 65 0 0 65 0 65 -65 0 -65 0 0 -65z"/>
<path d="M1410 905 l0 -65 65 0 65 0 0 65 0 65 -65 0 -65 0 0 -65z"/>
<path d="M290 625 l0 -65 65 0 65 0 0 65 0 65 -65 0 -65 0 0 -65z"/>
<path d="M570 625 l0 -65 65 0 65 0 0 65 0 65 -65 0 -65 0 0 -65z"/>
<path d="M850 625 l0 -65 65 0 65 0 0 65 0 65 -65 0 -65 0 0 -65z"/>
<path d="M1130 625 l0 -65 65 0 65 0 0 65 0 65 -65 0 -65 0 0 -65z"/>
<path d="M1410 625 l0 -65 65 0 65 0 0 65 0 65 -65 0 -65 0 0 -65z"/>
<path d="M290 345 l0 -65 65 0 65 0 0 65 0 65 -65 0 -65 0 0 -65z"/>
<path d="M570 345 l0 -65 65 0 65 0 0 65 0 65 -65 0 -65 0 0 -65z"/>
<path d="M850 345 l0 -65 65 0 65 0 0 65 0 65 -65 0 -65 0 0 -65z"/>
</g>
</symbol>

<symbol id="engine-returncalendar-icon" width="15" height="15" viewBox="0 0 182 182" fill="#000000">
<g transform="translate(0.000000,182.000000) scale(0.100000,-0.100000)" fill="#000000" stroke="none">
<path d="M288 1748 l-3 -73 -75 -5 c-56 -4 -84 -11 -107 -28 -51 -36 -81 -78 -92 -132 -15 -71 -15 -1279 0 -1352 9 -43 20 -62 60 -100 30 -29 60 -49 81 -53 18 -3 373 -5 789 -3 l756 3 36 27 c19 16 46 43 59 60 l23 33 0 710 0 710 -23 33 c-46 64 -87 86 -171 92 l-76 5 -3 73 -3 72 -64 0 -65 0 0 -75 0 -75 -495 0 -495 0 0 75 0 75 -65 0 -64 0 -3 -72z m2 -278 l0 -70 65 0 65 0 0 70 0 70 495 0 495 0 0 -70 0 -70 65 0 65 0 0 70 0 70 55 0 c88 0 95 -13 95 -165 l0 -125 -775 0 -775 0 0 125 c0 152 7 165 95 165 l55 0 0 -70z m1400 -825 c0 -462 -1 -476 -20 -495 -20 -20 -33 -20 -755 -20 -722 0 -735 0 -755 20 -19 19 -20 33 -20 495 l0 475 775 0 775 0 0 -475z"/>
<path d="M570 905 l0 -65 65 0 65 0 0 65 0 65 -65 0 -65 0 0 -65z"/>
<path d="M850 905 l0 -65 65 0 65 0 0 65 0 65 -65 0 -65 0 0 -65z"/>
<path d="M1130 905 l0 -65 65 0 65 0 0 65 0 65 -65 0 -65 0 0 -65z"/>
<path d="M1410 905 l0 -65 65 0 65 0 0 65 0 65 -65 0 -65 0 0 -65z"/>
<path d="M290 625 l0 -65 65 0 65 0 0 65 0 65 -65 0 -65 0 0 -65z"/>
<path d="M570 625 l0 -65 65 0 65 0 0 65 0 65 -65 0 -65 0 0 -65z"/>
<path d="M850 625 l0 -65 65 0 65 0 0 65 0 65 -65 0 -65 0 0 -65z"/>
<path d="M1130 625 l0 -65 65 0 65 0 0 65 0 65 -65 0 -65 0 0 -65z"/>
<path d="M1410 625 l0 -65 65 0 65 0 0 65 0 65 -65 0 -65 0 0 -65z"/>
<path d="M290 345 l0 -65 65 0 65 0 0 65 0 65 -65 0 -65 0 0 -65z"/>
<path d="M570 345 l0 -65 65 0 65 0 0 65 0 65 -65 0 -65 0 0 -65z"/>
<path d="M850 345 l0 -65 65 0 65 0 0 65 0 65 -65 0 -65 0 0 -65z"/>
</g>
</symbol>

<symbol id="engine-flightclass-icon" width="15" height="11" viewBox="0 0 299.000000 216.000000">
<g transform="translate(0.000000,216.000000) scale(0.100000,-0.100000)" fill="#000000" stroke="none">
<path d="M2625 2071 c-16 -4 -41 -13 -55 -20 -14 -7 -330 -318 -703 -690 l-677 -676 -368 367 c-248 248 -381 373 -411 388 -182 91 -401 -46 -401 -250 0 -126 0 -126 542 -665 445 -443 487 -482 536 -499 97 -33 191 -20 272 40 25 18 388 376 807 796 841 843 817 815 817 938 0 186 -172 316 -359 271z"/>
</g>
</symbol>

<symbol id="engine-traveltype-icon" width="15" height="11" viewBox="0 0 299.000000 216.000000">
<g transform="translate(0.000000,216.000000) scale(0.100000,-0.100000)" fill="#000000" stroke="none">
<path d="M2625 2071 c-16 -4 -41 -13 -55 -20 -14 -7 -330 -318 -703 -690 l-677 -676 -368 367 c-248 248 -381 373 -411 388 -182 91 -401 -46 -401 -250 0 -126 0 -126 542 -665 445 -443 487 -482 536 -499 97 -33 191 -20 272 40 25 18 388 376 807 796 841 843 817 815 817 938 0 186 -172 316 -359 271z"/>
</g>
</symbol>

<symbol id="engine-flighttype-icon" width="15" height="11" viewBox="0 0 299.000000 216.000000">
<g transform="translate(0.000000,216.000000) scale(0.100000,-0.100000)" fill="#000000" stroke="none">
<path d="M2625 2071 c-16 -4 -41 -13 -55 -20 -14 -7 -330 -318 -703 -690 l-677 -676 -368 367 c-248 248 -381 373 -411 388 -182 91 -401 -46 -401 -250 0 -126 0 -126 542 -665 445 -443 487 -482 536 -499 97 -33 191 -20 272 40 25 18 388 376 807 796 841 843 817 815 817 938 0 186 -172 316 -359 271z"/>
</g>
</symbol>

<symbol id="engine-compartment-icon" width="15" height="11" viewBox="0 0 299.000000 216.000000">
<g transform="translate(0.000000,216.000000) scale(0.100000,-0.100000)" fill="#000000" stroke="none">
<path d="M2625 2071 c-16 -4 -41 -13 -55 -20 -14 -7 -330 -318 -703 -690 l-677 -676 -368 367 c-248 248 -381 373 -411 388 -182 91 -401 -46 -401 -250 0 -126 0 -126 542 -665 445 -443 487 -482 536 -499 97 -33 191 -20 272 40 25 18 388 376 807 796 841 843 817 815 817 938 0 186 -172 316 -359 271z"/>
</g>
</symbol>

<symbol id="engine-passenger-icon" width="15" height="15" viewBox="0 0 225.000000 225.000000">
<g transform="translate(0.000000,225.000000) scale(0.100000,-0.100000)" fill="#000000" stroke="none">
<path d="M960 2217 c-150 -51 -271 -158 -339 -299 -93 -193 -93 -393 1 -587 70 -146 213 -266 363 -306 76 -19 204 -19 280 0 150 40 293 160 363 306 94 195 94 393 0 588 -69 143 -206 261 -357 305 -83 24 -230 21 -311 -7z"/>
<path d="M1509 1044 c-47 -49 -152 -104 -233 -123 -64 -16 -219 -16 -293 -1 -80 16 -192 73 -238 120 -22 22 -45 40 -52 40 -48 0 -238 -124 -337 -219 -217 -210 -329 -450 -351 -758 l-5 -83 1125 0 1125 0 -5 83 c-22 308 -134 548 -351 758 -82 79 -174 144 -280 197 l-61 31 -44 -45z"/>
</g>
</symbol>

<symbol id="engine-spinner-icon" width="15" height="15" fill="#000" viewBox="0 0 512.000000 512.000000">
<g transform="translate(0.000000,512.000000) scale(0.100000,-0.100000)" fill="#000000" stroke="none">
<path d="M2525 5105 c-225 -49 -410 -234 -461 -462 -21 -96 -15 -240 15 -334 81 -255 349 -434 622 -415 153 10 267 59 378 162 129 119 193 263 194 439 1 118 -13 183 -60 284 -49 104 -168 224 -273 275 -128 62 -279 81 -415 51z"/>
<path d="M1051 4424 c-90 -30 -162 -77 -228 -147 -106 -112 -153 -228 -153 -379 0 -169 48 -286 165 -403 112 -113 236 -165 392 -165 158 0 286 53 399 166 112 111 164 238 164 397 0 156 -52 280 -165 392 -117 118 -234 165 -405 165 -75 0 -111 -6 -169 -26z"/>
<path d="M4028 4136 c-48 -13 -62 -21 -111 -65 -99 -89 -100 -259 -2 -356 57 -58 117 -79 203 -73 135 10 231 113 232 248 0 166 -162 291 -322 246z"/>
<path d="M511 2959 c-197 -35 -375 -225 -400 -429 -27 -212 55 -386 243 -513 104 -70 297 -89 428 -43 149 53 281 191 323 340 20 68 22 212 5 277 -30 110 -127 239 -229 303 -95 60 -247 87 -370 65z"/>
<path d="M4584 2736 c-188 -87 -238 -331 -99 -484 20 -23 62 -54 93 -69 76 -37 182 -39 257 -5 248 113 238 461 -17 567 -59 24 -172 20 -234 -9z"/>
<path d="M1094 1465 c-191 -60 -324 -241 -324 -440 0 -129 48 -241 141 -330 103 -98 244 -145 377 -125 118 18 179 48 262 129 247 242 148 651 -186 765 -57 19 -209 20 -270 1z"/>
<path d="M3968 1357 c-150 -63 -234 -194 -226 -351 6 -131 82 -244 204 -306 37 -18 69 -25 134 -28 118 -5 183 19 266 102 83 83 107 148 102 266 -5 97 -27 154 -91 226 -90 102 -265 143 -389 91z"/>
<path d="M2565 806 c-75 -19 -132 -52 -192 -112 -232 -232 -102 -630 225 -686 130 -22 256 19 352 115 81 80 120 173 120 282 0 268 -247 465 -505 401z"/>
</g>
</symbol>

<symbol id="engine-down-icon" width="15" height="8" viewBox="0 0 15 8" fill="#000">
  <polygon points="7.5,8 0,0 3,0 7.5,5 12,0 15,0"/>
</symbol>

<symbol id="engine-close-icon" width="15" height="15" viewBox="0 0 115.000000 118.000000">
<g transform="translate(0.000000,118.000000) scale(0.100000,-0.100000)" fill="#000000" stroke="none">
<path d="M59 1135 c-34 -19 -52 -66 -38 -103 5 -15 103 -120 217 -234 l207 -208 -207 -207 c-114 -115 -212 -221 -217 -236 -8 -21 -7 -36 3 -62 17 -39 42 -55 87 -55 29 0 56 23 249 215 l215 215 216 -215 c199 -200 218 -215 251 -215 67 0 115 68 88 122 -7 13 -105 116 -218 231 l-207 207 212 213 c231 231 241 245 204 304 -25 40 -75 52 -117 30 -16 -9 -119 -106 -229 -216 l-200 -201 -205 204 c-113 112 -215 209 -227 215 -29 14 -52 13 -84 -4z"/>
</g>
</symbol>

<symbol id="engine-plane-icon" width="15" height="15" viewBox="0 0 24 24" fill="var(--primary)">
  <path d="M21 16v-2l-8-5V2a1 1 0 0 0-2 0v7l-8 5v2l8-2.5V19l-2.5 1.5V22l4.5-1 4.5 1v-1.5L13 19v-5.5L21 16z"/>
</symbol>

<symbol id="engine-rightarrow-icon" width="15" height="15" viewBox="0 0 448 512" fill="var(--primary)">
  <path d="M438.6 278.6l-160 160c-12.5 12.5-32.8 12.5-45.3 0s-12.5-32.8 0-45.3L354.7 288H32c-17.7 0-32-14.3-32-32s14.3-32 32-32h322.7L233.4 118.6c-12.5-12.5-12.5-32.8 0-45.3s32.8-12.5 45.3 0l160 160c12.5 12.5 12.5 32.8 0 45.3z"/>
</symbol>

<symbol id="engine-leftarrow-icon" width="15" height="15" viewBox="0 0 24 24" fill="var(--primary)">
  <path d="M15 19l-7-7 7-7" stroke="currentColor" stroke-width="2" stroke-linecap="round" stroke-linejoin="round"/>
</symbol>


<symbol id="engine-addroute-icon" width="15" height="11" viewBox="0 0 299.000000 216.000000">
<g transform="translate(0.000000,216.000000) scale(0.100000,-0.100000)" fill="#000000" stroke="none">
<path d="M2625 2071 c-16 -4 -41 -13 -55 -20 -14 -7 -330 -318 -703 -690 l-677 -676 -368 367 c-248 248 -381 373 -411 388 -182 91 -401 -46 -401 -250 0 -126 0 -126 542 -665 445 -443 487 -482 536 -499 97 -33 191 -20 272 40 25 18 388 376 807 796 841 843 817 815 817 938 0 186 -172 316 -359 271z"/>
</g>
</symbol>

<symbol id="engine-removeall-icon" width="15" height="11" viewBox="0 0 299.000000 216.000000">
<g transform="translate(0.000000,216.000000) scale(0.100000,-0.100000)" fill="#000000" stroke="none">
<path d="M2625 2071 c-16 -4 -41 -13 -55 -20 -14 -7 -330 -318 -703 -690 l-677 -676 -368 367 c-248 248 -381 373 -411 388 -182 91 -401 -46 -401 -250 0 -126 0 -126 542 -665 445 -443 487 -482 536 -499 97 -33 191 -20 272 40 25 18 388 376 807 796 841 843 817 815 817 938 0 186 -172 316 -359 271z"/>
</g>
</symbol>

<symbol id="engine-removeroute-icon" width="15" height="11" viewBox="0 0 299.000000 216.000000">
<g transform="translate(0.000000,216.000000) scale(0.100000,-0.100000)" fill="#000000" stroke="none">
<path d="M2625 2071 c-16 -4 -41 -13 -55 -20 -14 -7 -330 -318 -703 -690 l-677 -676 -368 367 c-248 248 -381 373 -411 388 -182 91 -401 -46 -401 -250 0 -126 0 -126 542 -665 445 -443 487 -482 536 -499 97 -33 191 -20 272 40 25 18 388 376 807 796 841 843 817 815 817 938 0 186 -172 316 -359 271z"/>
</g>
</symbol>

<symbol id="engine-plus-icon" width="10" height="10" viewBox="0 0 10 10" fill="none" stroke="currentColor" stroke-width="1.5" stroke-linecap="round" stroke-linejoin="round" xmlns="http://www.w3.org/2000/svg">
  <line x1="5" y1="2" x2="5" y2="8"/>
  <line x1="2" y1="5" x2="8" y2="5"/>
</symbol>

<symbol id="engine-minus-icon" width="10" height="10" viewBox="0 0 10 10" fill="none" stroke="currentColor" stroke-width="1.5" stroke-linecap="round" stroke-linejoin="round" xmlns="http://www.w3.org/2000/svg">
  <line x1="2" y1="5" x2="8" y2="5"/>
</symbol>

</svg>